<?xml version="1.0" standalone="no"?>
<!DOCTYPE svg PUBLIC "-//W3C//DTD SVG 1.1//EN" "http://www.w3.org/Graphics/SVG/1.1/DTD/svg11.dtd" >
<!--
2013-9-30: Created.
-->
<svg>
<metadata>
Created by iconfont
</metadata>
<defs>

<font id="iconfont" horiz-adv-x="1024" >
  <font-face
    font-family="iconfont"
    font-weight="500"
    font-stretch="normal"
    units-per-em="1024"
    ascent="896"
    descent="-128"
  />
    <missing-glyph />
    
    <glyph glyph-name="location" unicode="&#58961;" d="M512 288c-105.888 0-192 86.112-192 192s86.112 192 192 192 192-86.112 192-192S617.888 288 512 288zM512 608c-70.592 0-128-57.408-128-128s57.408-128 128-128c70.592 0 128 57.408 128 128S582.592 608 512 608zM512-64c-7.936 0-15.904 2.944-22.08 8.832-12.768 12.224-13.248 32.48-1.056 45.248C575.392 80.8 800 345.664 800 480c0 158.784-129.184 288-288 288-158.784 0-288-129.216-288-288 0-75.616 72.544-206.08 204.256-367.424 11.2-13.728 9.152-33.888-4.544-45.024-13.696-11.168-33.888-9.152-45.024 4.544C233.568 249.824 160 387.072 160 480 160 674.08 317.92 832 512 832s352-157.92 352-352c0-187.36-315.424-520.032-328.832-534.08C528.864-60.672 520.448-64 512-64z"  horiz-adv-x="1024" />

    
    <glyph glyph-name="timefill" unicode="&#58974;" d="M512 832C264.96 832 64 631.04 64 384s200.96-448 448-448 448 200.96 448 448S759.04 832 512 832zM671.264 320l-191.104 0C462.496 320 448 334.464 448 352.16L448 606.912c0 17.664 14.336 32 32 32s32-14.336 32-32L512 384l159.264 0c17.696 0 32-14.336 32-32C703.264 334.304 688.928 320 671.264 320z"  horiz-adv-x="1024" />

    
    <glyph glyph-name="time" unicode="&#58975;" d="M512 832C264.96 832 64 631.04 64 384s200.96-448 448-448 448 200.96 448 448S759.04 832 512 832zM512 0.288c-211.584 0-383.712 172.16-383.712 383.712C128.288 595.584 300.416 767.712 512 767.712c211.552 0 383.712-172.128 383.712-383.712C895.712 172.448 723.552 0.288 512 0.288zM671.968 384 512 384 512 607.936c0 17.76-14.24 32.128-32 32.128s-32-14.4-32-32.128L448 352c0-17.76 14.272-32 32-32l191.968 0c17.76 0 32.128 14.24 32.128 32S689.728 384 671.968 384z"  horiz-adv-x="1024" />

    
    <glyph glyph-name="unfold" unicode="&#58977;" d="M890.336 565.088c-12.576 12.416-32.8 12.352-45.248-0.192L517.248 234.048 184.832 563.488c-12.576 12.448-32.8 12.352-45.28-0.192-12.448-12.576-12.352-32.832 0.192-45.28l353.312-350.112c0.544-0.544 1.248-0.672 1.792-1.184 0.128-0.128 0.16-0.288 0.288-0.416 6.24-6.176 14.4-9.28 22.528-9.28 8.224 0 16.48 3.168 22.72 9.472l350.112 353.312C902.976 532.384 902.88 552.64 890.336 565.088z"  horiz-adv-x="1024" />

    
    <glyph glyph-name="list" unicode="&#59010;" d="M896 640l-288 0c-17.696 0-32 14.336-32 32s14.304 32 32 32l288 0c17.696 0 32-14.336 32-32S913.696 640 896 640zM896 480l-288 0c-17.696 0-32 14.336-32 32s14.304 32 32 32l288 0c17.696 0 32-14.336 32-32S913.696 480 896 480zM896 224l-288 0c-17.696 0-32 14.304-32 32s14.304 32 32 32l288 0c17.696 0 32-14.304 32-32S913.696 224 896 224zM896 64l-288 0c-17.696 0-32 14.304-32 32s14.304 32 32 32l288 0c17.696 0 32-14.304 32-32S913.696 64 896 64zM384 416 192 416c-52.928 0-96 43.072-96 96L96 704c0 52.928 43.072 96 96 96l192 0c52.928 0 96-43.072 96-96l0-192C480 459.072 436.928 416 384 416zM192 736C174.368 736 160 721.632 160 704l0-192c0-17.632 14.368-32 32-32l192 0c17.632 0 32 14.368 32 32L416 704c0 17.632-14.368 32-32 32L192 736zM384-32 192-32c-52.928 0-96 43.072-96 96l0 192c0 52.928 43.072 96 96 96l192 0c52.928 0 96-43.072 96-96l0-192C480 11.072 436.928-32 384-32zM192 288c-17.632 0-32-14.336-32-32l0-192c0-17.664 14.368-32 32-32l192 0c17.632 0 32 14.336 32 32l0 192c0 17.664-14.368 32-32 32L192 288z"  horiz-adv-x="1024" />

    
    <glyph glyph-name="footprint" unicode="&#59037;" d="M885.76 214.464c-13.76 11.168-33.92 8.896-44.96-4.832-11.104-13.76-8.928-33.92 4.832-44.96 22.4-18.08 52.48-71.776 52.48-101.984 0-54.016-43.904-97.952-97.92-97.952-31.776 0-61.728 15.488-80.096 41.504-2.208 3.136-61.536 88.672-96.192 125.696-61.088 65.216-163.52 61.568-163.904 61.632-129.76 26.752-218.656 132.032-202.4 239.744 8.064 53.728 40.96 100.736 92.64 132.448 53.44 32.736 120.192 45.184 188 34.976 67.712-10.208 127.84-41.728 169.28-88.768 40.064-45.504 57.664-100.128 49.536-153.92-3.072-20.576-9.856-40.352-20.224-58.816-8.672-15.392-3.2-34.912 12.256-43.552 15.328-8.608 34.912-3.2 43.552 12.256 14.176 25.248 23.488 52.416 27.712 80.672 10.976 72.704-12.064 145.76-64.8 205.696-51.392 58.336-125.184 97.344-207.776 109.76C465.184 676.448 383.104 660.96 316.8 620.32c-68.096-41.728-111.584-104.768-122.496-177.472-21.344-141.312 89.696-278.336 252.768-311.968 2.176-0.448 89.216 0.96 130.112-42.688 35.808-38.24 90.528-121.344 94.56-123.776 30.528-39.872 77.984-63.648 128.416-63.648 89.28 0 161.92 72.672 161.92 161.952C962.08 114.368 921.792 185.472 885.76 214.464zM128.416 575.136m-64 0a2 2 0 1 0 128 0 2 2 0 1 0-128 0ZM272.864 667.744c-10.976 0-21.984 3.712-30.944 11.328C221.92 696.096 219.136 725.888 235.936 746.08c3.968 4.736 98.688 115.68 277.184 79.968 25.984-5.184 42.848-30.464 37.664-56.48s-30.496-42.976-56.48-37.664c-120.8 24.192-182.304-44.672-184.864-47.584C299.904 673.376 286.4 667.744 272.864 667.744z"  horiz-adv-x="1024" />

    
    <glyph glyph-name="changetop" unicode="&#59038;" d="M825.568 340.672l-287.392 289.28C531.808 636.352 523.488 639.424 515.2 639.36 514.08 639.456 513.12 640 512 640c-4.672 0-9.024-1.088-13.024-2.88-4.032-1.536-7.872-3.872-11.136-7.136l-259.328-258.88c-12.512-12.48-12.544-32.736-0.032-45.248 6.24-6.272 14.432-9.408 22.656-9.408 8.192 0 16.352 3.136 22.624 9.344L480 531.712 480-32c0-17.696 14.336-32 32-32s32 14.304 32 32L544 533.28l236.192-237.728c6.24-6.272 14.496-9.44 22.688-9.44s16.32 3.104 22.56 9.312C838.016 307.87199999999996 838.048 328.15999999999997 825.568 340.672zM864 704L160 704C142.336 704 128 718.336 128 736s14.336 32 32 32l704 0c17.696 0 32-14.336 32-32S881.696 704 864 704z"  horiz-adv-x="1024" />

    
    <glyph glyph-name="vip" unicode="&#59075;" d="M512-64.032C264.96-64.032 64 136.96 64 384S264.96 832 512 832 960.032 631.04 960.032 384 759.04-64.032 512-64.032zM512 768C300.256 768 128 595.744 128 384s172.256-384.032 384-384.032S896.032 172.256 896.032 384 723.744 768 512 768zM416 158.24c-4.672 0-9.344 0.992-13.696 3.072C391.136 166.624 384 177.888 384 190.24L384 512l-64 0c-17.664 0-32 14.336-32 32s14.336 32 32 32l96 0c17.664 0 32-14.336 32-32l0-286.08L679.68 448 672 448c-17.696 0-32 14.336-32 32s14.304 32 32 32l97.12 0c13.536 0 25.568-8.512 30.112-21.216 4.576-12.736 0.64-26.944-9.824-35.52l-353.152-289.76C430.464 160.704 423.264 158.24 416 158.24z"  horiz-adv-x="1024" />

    
    <glyph glyph-name="weibo" unicode="&#59076;" d="M728.864 398.944c-12.48 3.712-29.152 6.752-22.624 22.944 14.144 35.136 15.744 73.792 0.416 95.424-28.736 40.576-99.36 29.472-189.44-7.808 0 0.064-28.288-12.224-21.056 9.952 13.856 44.032 11.776 80.896-9.792 102.208-48.896 48.352-178.88-1.824-290.368-111.936C112.48 427.2 64 339.744 64 264.16c0-144.608 187.68-232.544 371.296-232.544 240.704 0 395.776 139.104 395.776 248.832C831.072 346.72 779.616 383.392 728.864 398.944zM435.808 83.424c-146.528-14.272-272.992 51.168-282.496 146.208-9.504 95.04 101.568 183.68 248.096 197.984 146.528 14.304 273.024-51.136 282.496-146.144C693.376 186.4 582.336 97.76 435.808 83.424zM897.632 660.864c-60.096 62.496-148.704 86.304-230.496 69.984l-0.032 0c-18.944-3.808-30.976-21.28-26.944-38.976 4.032-17.728 22.656-29.056 41.568-25.28 58.176 11.584 121.152-5.376 163.872-49.76 42.656-44.384 54.272-104.928 35.968-157.984l0 0c-5.952-17.28 4.128-35.776 22.592-41.376 18.368-5.568 38.144 3.872 44.096 21.12 0 0.032 0 0.096 0 0.096C973.92 513.344 957.728 598.432 897.632 660.864M807.904 578.912c-29.024 31.2-71.872 43.04-111.456 34.88-16.16-3.328-26.464-18.752-23.008-34.432 3.456-15.616 19.36-25.632 35.488-22.24l0-0.032c19.328 3.968 40.32-1.824 54.496-17.024 14.208-15.264 18.016-36.032 11.936-54.272l0.032 0c-5.056-15.232 3.52-31.584 19.264-36.512 15.744-4.864 32.608 3.424 37.696 18.688C844.768 505.248 836.992 547.712 807.904 578.912M484.928 391.936C413.12 410.24 331.968 375.2 300.8 313.28c-31.744-63.168-1.056-133.28 71.488-156.192 75.136-23.712 163.68 12.64 194.464 80.8C597.12 304.512 559.2 373.152 484.928 391.936zM430.08 233.472c-14.592-22.336-45.824-32.128-69.376-21.824-23.2 10.144-30.048 36.096-15.456 57.856 14.432 21.696 44.608 31.36 67.968 21.952C436.864 281.792 444.416 256.032 430.08 233.472zM478.176 292.672c-5.28-8.64-16.928-12.832-26.08-9.216-8.992 3.552-11.808 13.248-6.688 21.728 5.248 8.448 16.48 12.608 25.44 9.184C479.936 311.2 483.2 301.408 478.176 292.672z"  horiz-adv-x="1024" />

    
    <glyph glyph-name="tmall" unicode="&#59087;" d="M777.44 119.936c1.056 0.448 1.952 0.768 2.688 1.024 0.736 0.224 1.632 0.32 2.688 0.32 1.472 0 3.264-0.448 5.408-1.344M235.488 119.936c-3.808-2.016-7.36-6.176-10.624-12.448-3.296-6.272-6.144-14.016-8.576-23.232-2.432-9.216-4.352-19.68-5.728-31.488-1.376-11.776-2.048-24.288-2.048-37.536 0-8.544 0.32-16.736 0.96-24.576 0.64-7.84 1.472-15.36 2.528-22.56L269.12-31.904c2.528 14.144 3.808 29.856 3.808 47.136 0 13.248-0.672 25.76-2.048 37.536-1.376 11.776-3.264 22.272-5.728 31.488-2.432 9.216-5.28 16.96-8.576 23.232-3.296 6.272-6.816 10.432-10.624 12.448M777.44 119.936c-3.808-2.016-7.296-6.176-10.464-12.448-3.168-6.272-5.984-14.016-8.416-23.232-2.432-9.216-4.288-19.68-5.568-31.488-1.28-11.776-1.888-24.288-1.888-37.536 0-8.544 0.256-16.736 0.8-24.576 0.544-7.84 1.312-15.36 2.368-22.56l57.152 0c1.056 7.168 1.888 14.688 2.528 22.56 0.64 7.872 0.96 16.064 0.96 24.576 0 13.248-0.672 25.76-2.08 37.536-1.376 11.776-3.264 22.272-5.728 31.488-2.432 9.216-5.248 16.96-8.416 23.232-3.168 6.272-6.656 10.432-10.464 12.448M245.952 119.936c12.896-0.672 25.088-3.872 36.512-9.6 11.424-5.728 21.312-13.312 29.696-22.72 8.352-9.44 14.976-20.32 19.84-32.672 4.864-12.352 7.296-25.472 7.296-39.392 0-17.28-3.712-33.12-11.104-47.456l367.008 0c-7.2 14.592-10.784 30.4-10.784 47.456 0 13.92 2.432 27.04 7.296 39.392s11.488 23.232 19.84 32.672 18.208 16.992 29.536 22.72c11.328 5.728 23.456 8.928 36.352 9.6L245.952 119.936zM539.968 24.32l-10.176-15.488c-2.336-3.136-4.544-6.272-6.656-9.44-2.112-3.136-3.904-5.824-5.408-8.096-0.416-0.448-0.992-0.96-1.76-1.504-0.736-0.576-2.176-0.832-4.288-0.832-2.112 0-3.488 0.288-4.128 0.832-0.64 0.576-1.152 1.056-1.6 1.504-1.696 2.24-3.584 4.928-5.728 8.096l-6.336 9.44-10.496 15.488c-2.528 3.584-2.816 6.72-0.8 9.44 2.016 2.688 5.664 4.032 10.944 4.032l36.512 0c5.504 0 9.216-1.344 11.104-4.032C543.136 31.072 542.72 27.936 539.968 24.32zM788.224 119.936c12.928-0.672 25.024-3.872 36.352-9.6 11.328-5.728 21.216-13.312 29.696-22.72 8.48-9.44 15.136-20.32 20-32.672 4.864-12.352 7.296-25.472 7.296-39.392 0-8.544-0.96-16.768-2.848-24.736-1.888-7.968-4.672-15.552-8.256-22.72l87.008 0 0 115.808-0.32 0 0 72.032 0 0.352 0 3.04c-0.224 10.112-0.864 21.216-1.92 33.344-1.056 12.128-3.008 23.904-5.888 35.36-2.848 11.456-6.784 21.952-11.744 31.488-4.96 9.536-11.36 16.672-19.2 21.376-8.896 5.6-17.568 7.744-26.016 6.4-8.48-1.344-16.128-4.096-23.008-8.256-6.88-4.16-12.704-8.768-17.472-13.792-4.768-5.056-8-8.576-9.696-10.592-11.84-14.144-24.064-28.672-36.672-43.616s-26.464-28.544-41.6-40.896c-15.136-12.352-31.872-22.496-50.176-30.464-18.304-7.968-39.008-11.936-62.08-11.936l-22.208 0L512 127.744l-0.32 0L393.92 127.744l-21.92 0c-23.264 0-44.064 4-62.4 11.936-18.304 7.968-34.976 18.112-50.016 30.464-15.04 12.352-28.896 25.984-41.6 40.896-12.704 14.912-24.992 29.472-36.832 43.616-1.056 1.344-2.848 3.424-5.408 6.24-2.528 2.816-5.6 5.824-9.216 9.088-3.616 3.264-7.712 6.336-12.384 9.248s-9.632 5.12-14.912 6.56c-5.28 1.472-10.848 1.92-16.672 1.344-5.824-0.576-11.68-2.624-17.632-6.24-7.84-4.704-14.176-11.84-19.04-21.376-4.864-9.536-8.736-20.032-11.584-31.488-2.848-11.456-4.8-23.232-5.856-35.36-1.056-12.128-1.696-23.232-1.92-33.344-0.224-0.448-0.32-1.44-0.32-3.04l0-0.352 0-72.032 0-115.808 86.688 0c-3.392 7.168-6.016 14.752-7.936 22.72-1.888 7.968-2.848 16.224-2.848 24.736 0 13.92 2.432 27.04 7.296 39.392 4.864 12.352 11.52 23.232 20 32.672 8.448 9.44 18.368 16.992 29.696 22.72 11.328 5.728 23.456 8.928 36.352 9.6M235.488 119.936c1.056 0.448 2.016 0.768 2.848 1.024 0.832 0.224 1.696 0.32 2.528 0.32 1.056 0 1.952-0.096 2.688-0.32 0.736-0.224 1.536-0.544 2.368-1.024M928 320c-17.696 0-32 14.304-32 32L896 703.904C896 721.312 881.344 736 864 736L160 736C142.368 736 128 721.6 128 703.904L128 352c0-17.696-14.336-32-32-32s-32 14.304-32 32L64 703.904C64 756.896 107.072 800 160 800l704 0c52.928 0 96-43.104 96-96.096L960 352C960 334.304 945.696 320 928 320zM512 415.904c-123.52 0-224 100.48-224 224 0 17.664 14.336 32 32 32s32-14.336 32-32c0-88.224 71.776-160 160-160s160 71.776 160 160c0 17.664 14.304 32 32 32s32-14.336 32-32C736 516.384 635.488 415.904 512 415.904z"  horiz-adv-x="1024" />

    
    <glyph glyph-name="present" unicode="&#59091;" d="M928 608h-147.2l54.4 51.2c19.2 19.2 28.8 44.8 28.8 73.6 0 25.6-9.6 51.2-28.8 70.4-19.2 19.2-44.8 28.8-70.4 28.8-25.6 0-51.2-9.6-70.4-28.8l-105.6-105.6c-12.8-12.8-12.8-32 0-44.8 12.8-12.8 32-12.8 44.8 0l105.6 105.6c6.4 6.4 16 9.6 25.6 9.6 9.6 0 19.2-3.2 25.6-9.6 6.4-9.6 9.6-16 9.6-25.6s-3.2-19.2-9.6-25.6L691.2 608h-166.4l-195.2 195.2C310.4 822.4 284.8 832 259.2 832c-25.6 0-51.2-9.6-70.4-28.8S160 758.4 160 732.8c0-28.8 9.6-54.4 28.8-73.6L243.2 608H96c-19.2 0-32-12.8-32-32v-163.2c0-19.2 12.8-32 32-32v-313.6C96 12.799999999999955 137.6-32 188.8-32h646.4c51.2 0 96 44.8 96 102.4V384c16 0 32 16 32 32v160c-3.2 19.2-16 32-35.2 32z m-32-163.2H544V544h352v-99.2zM233.6 707.2c-6.4 6.4-9.6 16-9.6 25.6 0 9.6 3.2 19.2 9.6 25.6s16 9.6 25.6 9.6c9.6 0 19.2-3.2 25.6-9.6L435.2 608h-102.4L233.6 707.2zM480 544v-99.2H131.2 128V544h352zM188.8 32c-16 0-28.8 19.2-28.8 38.4V384h320v-352H188.8z m646.4 0H544V380.79999999999995h320v-313.6c0-16-12.8-35.2-28.8-35.2z"  horiz-adv-x="1024" />

    
    <glyph glyph-name="servicefill" unicode="&#59191;" d="M608.864 224.192c-34.304 0-60.896 2.656-68.544 3.488-17.568 1.984-30.208 17.792-28.256 35.328 1.952 17.504 17.504 30.144 35.328 28.288 79.648-8.736 201.696-1.184 223.04 43.2 7.616 15.904 26.688 22.688 42.688 15.008 15.936-7.648 22.656-26.752 15.008-42.688C794.4 236.672 683.36 224.192 608.864 224.192zM896 256c-17.696 0-32 14.304-32 32l0 110.272-42.752 15.232C808.512 418.048 800 430.112 800 443.648c0 158.784-129.184 288-288 288-158.784 0-288-129.216-288-288 0-10.336-4.992-20.032-13.408-26.048L192 404.352 192 288c0-17.696-14.336-32-32-32s-32 14.304-32 32l0 132.832c0 10.336 4.992 20.032 13.408 26.048l18.976 13.504C169.184 646.752 323.52 795.648 512 795.648c186.432 0 339.456-145.664 351.296-329.184l43.456-15.488C919.488 446.432 928 434.368 928 420.832L928 288C928 270.304 913.696 256 896 256zM640 112.192l0 9.696c28.032 21.888 50.368 42.944 63.68 72.8-29.152-4.608-61.6-2.976-87.712-2.976-32 0-59.328-0.864-75.968 0.992-35.136 3.872-60.448 38.72-56.544 73.856 3.904 35.168 35.84 60.64 70.656 56.544 71.264-7.648 149.792 0.672 181.28 14.016 1.344 29.216 0.96 60.032 0.96 83.456 0 136.928-83.264 218.176-216.736 221.12-0.768 0.064-18.816 0.064-19.52 0.064-133.504-2.752-213.536-84.928-213.536-222.08 0-84.672 1.44-222.816 97.44-297.792l0-9.696c-128-20.032-225.952-72.512-225.952-142.016C158.048-47.488 172.864-64 190.56-64L818.56-64c17.696 0 39.936 16.512 39.936 34.176C858.496 39.68 768 92.16 640 112.192z"  horiz-adv-x="1024" />

    
    <glyph glyph-name="home" unicode="&#59006;" d="M978.788286 441.471946l-61.057611 55.468312c-0.88823 0.908696-1.829671 1.76418-2.821255 2.562359L573.324694 809.818175c-0.280386 0.255827-0.566912 0.505513-0.856507 0.750083-35.796274 30.261211-87.769996 30.269397-123.574457 0.01842-0.289596-0.24457-0.575098-0.494257-0.855484-0.74906L42.311665 441.478086c-13.047154-11.845793-14.021342-32.025391-2.175549-45.071522 6.297426-6.935969 14.94948-10.460236 23.633257-10.460236 7.65126 0 15.328104 2.735297 21.438265 8.283664l10.357905 9.404184 0-370.150318c0-52.782134 42.940998-95.723132 95.723132-95.723132l639.810944 0c52.78111 0 95.722108 42.940998 95.722108 95.723132L926.821727 402.463514l9.05626-8.226359c13.043061-11.847839 33.222659-10.880815 45.072545 2.162246C992.799394 409.442462 991.831346 429.62206 978.788286 441.471946zM543.374568 1.5761469999999917l-63.85226 0c0.084934 0.950651 0.1361 1.911536 0.1361 2.883677l0 189.628872 63.580061 0 0-189.628872C543.238468 3.4876829999999472 543.289634 2.5267989999999827 543.374568 1.5761469999999917zM863.006306 33.48488099999997c0-17.593703-14.312984-31.908734-31.907711-31.908734L606.91779 1.5761469999999917c0.084934 0.950651 0.1361 1.911536 0.1361 2.883677l0 221.535559c0 17.622356-14.285355 31.907711-31.907711 31.907711L447.750697 257.903094c-17.622356 0-31.907711-14.285355-31.907711-31.907711l0-221.535559c0-0.973164 0.051165-1.933025 0.1361-2.883677L191.288674 1.5761469999999917c-17.593703 0-31.907711 14.314007-31.907711 31.908734L159.380964 461.57275l331.060021 300.56959c11.799744 9.677407 28.665877 9.677407 40.463574-0.004093L863.006306 460.43688 863.006306 33.48488099999997z"  horiz-adv-x="1024" />

    
    <glyph glyph-name="shop-cart" unicode="&#58883;" d="M851.209481-128M940.809481 723.209481l-742.4 0C185.609481 780.8 179.2 819.2 179.2 825.590519c0 32.009481-19.190519 51.2-38.4 64C121.609481 896 108.790519 896 102.4 896l0 0L32.009481 896C12.8 896 0 883.2 0 863.990519 0 844.8 12.8 832 32.009481 832L102.4 832l6.390519 0c0 0 6.409481 0 6.409481-12.8 6.409481-38.4 102.4-646.390519 108.790519-684.809481 0-6.390519 6.409481-19.209481 12.8-38.4 19.209481-19.190519 38.4-38.4 83.190519-38.4l595.209481 0c19.209481 0 32.009481 12.8 32.009481 31.990519s-12.8 32.009481-32.009481 32.009481L320 121.59051899999997c-6.409481 0-19.190519 0-25.6 6.409481l-6.409481 6.390519 0 6.409481c0 0-6.390519 25.6-12.8 64l588.8 0c51.2 0 83.209481 25.6 96.009481 70.409481l0 0L1024 640l0 6.409481C1024 684.790519 985.6 723.209481 940.809481 723.209481L940.809481 723.209481 940.809481 723.209481zM902.409481 288.00948100000005c-6.409481-12.8-12.8-25.6-32.009481-25.6L268.8 262.409481C256 377.60948099999996 223.990519 537.6 204.8 659.190519l736.009481 0c6.409481 0 12.8-6.390519 19.190519-12.8L902.409481 288.00948100000005 902.409481 288.00948100000005 902.409481 288.00948100000005zM902.409481 288.00948100000005M855.22963 4.740740999999957c-36.655407 0-66.37037-29.714963-66.37037-66.37037 0-36.655407 29.714963-66.37037 66.37037-66.37037 36.655407 0 66.37037 29.714963 66.37037 66.37037C921.6-24.974222000000054 891.885037 4.740740999999957 855.22963 4.740740999999957zM324.039111 4.740740999999957c-36.655407 0-66.37037-29.714963-66.37037-66.37037 0-36.655407 29.714963-66.37037 66.37037-66.37037 36.655407 0 66.37037 29.714963 66.37037 66.37037C390.409481-24.974222000000054 360.694519 4.740740999999957 324.039111 4.740740999999957z"  horiz-adv-x="1024" />

    
    <glyph glyph-name="shop" unicode="&#58902;" d="M854.569 654.328l-138.1 0 0 61.228c0 46.616-40.144 87.515-85.906 87.515l-235.8 0c-45.982 0-86.323-40.898-86.323-87.515l0-61.228-138.1 0c-14.097 0-25.514-11.436-25.514-25.531l0-538.151c0-70.005 54.082-126.984 120.571-126.984l494.511 0c66.273 0 120.194 56.98 120.194 126.984l0 538.151c0.001 14.095-11.434 25.531-25.531 25.531zM359.502 715.557c0 18.067 17.788 36.451 35.261 36.451l235.8 0c17.609 0 34.882-18.067 34.882-36.451l0-61.228-305.944 0 0 61.228zM308.439 603.265l0-82.433c-7.425-7.187-12.071-17.232-12.071-28.39 0-21.879 17.77-39.668 39.668-39.668 21.879 0 39.628 17.789 39.628 39.668 0 13.064-6.392 24.579-16.162 31.807l0 79.016 305.944 0 0-79.016c-9.787-7.227-16.2-18.742-16.2-31.807 0-21.879 17.748-39.668 39.646-39.668 21.899 0 39.648 17.789 39.648 39.668 0 11.158-4.647 21.203-12.071 28.39l0 82.433 112.589 0 0-457.902-633.19 0 0 457.902 112.571 0zM759.907 14.726999999999975l-494.511 0c-38.337 0-69.528 34.028-69.528 75.92l0 10.086 633.19 0 0-10.086c-0.001-41.892-31.031-75.92-69.152-75.92z"  horiz-adv-x="1024" />

    
    <glyph glyph-name="left" unicode="&#58887;" d="M256 384l512-512 0 135.776-376.224 376.224 376.224 376.256 0 135.745z"  horiz-adv-x="1024" />

    
    <glyph glyph-name="edit" unicode="&#58885;" d="M986.074074 543.228689c-17.457966 0-31.303939-15.049971-31.303939-34.313933l0-493.037037c0-39.129924-29.497942-71.035861-65.617872-71.035861L131.235744-55.158142c-36.119929 0-65.617872 31.905938-65.617872 71.035861L65.617872 752.1222809999999c0 39.129924 29.497942 71.035861 65.617872 71.035861l512.300999 0c17.457966 0 31.303939 15.049971 31.303939 34.313933 0 18.661964-13.845973 34.313933-31.303939 34.313933L131.235744 891.786008C60.199882 891.184009 3.009994 829.178131 3.009994 752.1222809999999l0-736.244562c0-77.05585 57.791887-139.061728 128.22575-139.061728l757.91652 0c71.035861 0 128.22575 62.607878 128.22575 139.061728L1017.378013 508.914756C1017.378013 528.178718 1003.53204 543.228689 986.074074 543.228689zM288.959436 334.937096L288.959436 334.937096c-1.203998-2.407995-3.009994-5.417989-3.611993-7.825985l-66.821869-222.739565c-2.407995-9.029982 0-18.661964 6.621987-25.283951 4.815991-4.815991 11.437978-7.223986 18.059965-7.223986 2.407995 0 4.815991 0.601999 7.223986 1.203998l222.739565 66.821869c3.009994 0.601999 5.417989 1.805996 7.825985 3.611993l0 0 533.972957 533.972957c7.825985 7.825985 12.039976 18.059965 12.039976 28.895944 0 10.835979-4.213992 21.069959-12.039976 28.895944L879.520282 868.910053c-15.651969 15.651969-41.537919 15.651969-57.189888 0L290.765432 337.345091 288.959436 334.937096zM809.08642 783.4262200000001l42.139918 42.139918 119.797766-119.797766-42.139918-42.139918L809.08642 783.4262200000001zM363.60729 337.94709l409.3592 409.3592 119.797766-119.797766-409.3592-409.3592L363.60729 337.94709zM281.133451 135.073486l47.557907 159.529688 111.971781-111.971781L281.133451 135.073486z"  horiz-adv-x="1028" />

    
    <glyph glyph-name="we_fill_light" unicode="&#59352;" d="M305.067 612.267c-8.533 8.533-21.333 6.4-29.867-2.133-53.333-59.733-83.2-136.533-83.2-217.6 0-78.933 29.867-155.733 81.067-215.467 4.267-4.267 10.667-6.4 14.933-6.4 4.267 0 10.667 2.133 14.933 6.4 8.533 8.533 10.667 21.333 2.133 29.867-44.8 49.067-70.4 117.333-70.4 185.6 0 70.4 25.6 136.533 72.533 189.867 8.533 8.533 6.4 21.333-2.133 29.867zM748.8 610.133c-8.533 8.533-21.333 8.533-29.867 2.133-8.533-8.533-8.533-21.333-2.133-29.867 46.933-51.2 72.533-119.467 72.533-189.867 0-70.4-25.6-136.533-70.4-187.733-8.533-8.533-6.4-21.333 2.133-29.867 4.267-4.267 8.533-6.4 14.933-6.4 6.4 0 12.8 2.133 14.933 6.4 53.333 59.733 81.067 136.533 81.067 215.467 0 83.2-29.867 160-83.2 219.733zM674.133 490.667c-38.4 32-93.867 27.733-125.867-10.667l-34.133-40.533-34.133 40.533c-32 38.4-87.467 42.667-125.867 10.667-38.4-32-42.667-87.467-10.667-125.867l100.267-119.467c17.067-21.333 42.667-32 66.133-32h4.267c27.733 0 53.333 10.667 72.533 32l100.267 119.467c29.867 38.4 25.6 93.867-12.8 125.867zM802.133 42.667c-6.4 0-10.667 2.133-14.933 6.4-8.533 8.533-8.533 21.333 0 29.867 17.067 14.933 32 34.133 44.8 51.2 55.467 74.667 85.333 162.133 85.333 253.867 0 100.267-34.133 196.267-98.133 273.067-14.933 19.2-32 34.133-49.067 51.2-8.533 8.533-10.667 21.333-2.133 29.867 8.533 8.533 21.333 10.667 29.867 2.133 19.2-17.067 38.4-36.267 55.467-55.467 68.267-83.2 106.667-189.867 106.667-300.8 0-102.4-32-198.4-91.733-279.467-14.933-21.333-32-40.533-51.2-57.6-4.267-2.133-8.533-4.267-14.933-4.267zM236.8 42.667c-4.267 0-10.667 2.133-12.8 4.267-14.933 12.8-29.867 27.733-44.8 44.8-74.667 83.2-115.2 192-115.2 302.933 0 113.067 40.533 219.733 115.2 305.067 12.8 14.933 27.733 29.867 42.667 42.667 8.533 8.533 23.467 6.4 29.867-2.133 8.533-8.533 6.4-23.467-2.133-29.867-12.8-12.8-27.733-25.6-38.4-38.4-66.133-76.8-104.533-174.933-104.533-277.333 0-100.267 36.267-198.4 104.533-273.067 12.8-14.933 25.6-27.733 40.533-40.533 8.533-8.533 10.667-21.333 2.133-29.867-4.267-4.267-10.667-8.533-17.067-8.533z"  horiz-adv-x="1024" />

    
    <glyph glyph-name="service_light" unicode="&#59357;" d="M808.533333 330.666667c4.266667 10.666667 0 23.466667-10.666666 27.733333-10.666667 4.266667-23.466667 0-27.733334-10.666667-17.066667-34.133333-78.933333-53.333333-172.8-51.2-12.8 0-21.333333-8.533333-21.333333-21.333333s8.533333-21.333333 21.333333-21.333333h8.533334c110.933333 0 179.2 25.6 202.666666 76.8zM861.866667 452.266667l-36.266667 14.933333C817.066667 633.6 680.533333 768 512 768 341.333333 768 202.666667 631.466667 198.4 462.933333l-19.2-14.933333c-6.4-2.133333-8.533333-8.533333-8.533333-14.933333V341.333333c0-12.8 8.533333-21.333333 21.333333-21.333333s21.333333 8.533333 21.333333 21.333333v78.933334l19.2 14.933333c4.266667 4.266667 8.533333 10.666667 8.533334 17.066667C241.066667 603.733333 362.666667 725.333333 512 725.333333c149.333333 0 270.933333-121.6 270.933333-270.933333 0-8.533333 4.266667-17.066667 12.8-19.2l36.266667-14.933333V341.333333c0-12.8 8.533333-21.333333 21.333333-21.333333s21.333333 8.533333 21.333334 21.333333v91.733334c0 8.533333-4.266667 14.933333-12.8 19.2zM512 256c-106.666667 0-192 85.333333-192 192s85.333333 192 192 192 192-85.333333 192-192c0-12.8-2.133333-27.733333-4.266667-40.533333-2.133333-10.666667 4.266667-23.466667 17.066667-25.6 10.666667-2.133333 23.466667 4.266667 25.6 17.066666 4.266667 14.933333 4.266667 32 4.266667 49.066667 0 128-106.666667 234.666667-234.666667 234.666667s-234.666667-106.666667-234.666667-234.666667c0-89.6 51.2-168.533333 125.866667-206.933333-119.466667-32-204.8-119.466667-228.266667-236.8-2.133333-10.666667 4.266667-23.466667 17.066667-25.6h4.266667c10.666667 0 19.2 6.4 21.333333 17.066666C241.066667 128 354.133333 211.2 512 211.2c12.8 0 21.333333 8.533333 21.333333 21.333333s-10.666667 23.466667-21.333333 23.466667zM738.133333 209.066667c-8.533333 6.4-23.466667 6.4-29.866666-4.266667-6.4-8.533333-6.4-23.466667 4.266666-29.866667 44.8-34.133333 102.4-93.866667 119.466667-179.2 2.133333-10.666667 10.666667-17.066667 21.333333-17.066666h4.266667c10.666667 2.133333 19.2 12.8 17.066667 25.6-21.333333 98.133333-85.333333 166.4-136.533334 204.8z"  horiz-adv-x="1024" />

    
    <glyph glyph-name="position" unicode="&#58888;" d="M81.2 66c-0-69.036 192.876-125 430.8-125s430.8 55.964 430.8 125c0 69.036-192.876 125-430.8 125-237.924 0-430.8-55.964-430.8-125zM522.6 195v-50h-20v50h20zM502.6-36h20v50h-20v-50zM95.1 62h80v20h-80v-20zM845.1 82v-20h80v20h-80zM960 66c0-25.7-25.8-49.7-70.3-69.9v0.1c-0.1 0-0.1-0.1-0.2-0.1-10.3-5.1-22.8-0.9-28 9.4-5.1 10.3-0.9 22.8 9.4 27.9 0.2 0.1 0.4 0.2 0.5 0.2 24.7 11.2 38.5 23.8 38.5 37.1 0 47.5-176.8 86-395 86s-395-38.5-395-86 176.8-86 395-86c51.6 0 96.7 1.9 141.8 5.9 0.2 0 0.4 0 0.6 0.1h0.3c12.9 0.7 24-9 25-21.9 0.9-13-8.8-24.3-21.8-25.3-46.6-4.8-96.7-7.4-148.9-7.4-247.4 0-448 58.2-448 130s200.6 130 448 130 448.1-58.3 448.1-130.1zM769.4 7.7c-13-0.9-22.8-12.3-21.9-25.3s12.3-22.8 25.3-21.9c13 0.9 22.8 12.3 21.9 25.3-0.9 13.1-12.3 22.9-25.3 21.9zM511.9 77c-26.5 20.9-84.6 68.9-142.1 131.9-45 49.3-80.7 97.8-106.2 144.4-31 56.6-46.7 110-46.7 158.8 0 78.8 30.7 152.9 86.4 208.6 55.8 55.6 129.9 86.3 208.7 86.3 78.8 0 152.9-30.7 208.6-86.4s86.4-129.8 86.4-208.6c0-48.4-15.8-101.7-46.9-158.3-25.6-46.6-61.4-95.3-106.6-144.8-57.4-63-115.2-111-141.6-131.9zM512 782c36.5 0 71.8-7.1 105.1-21.2 32.1-13.6 61-33.1 85.8-57.9 24.8-24.8 44.3-53.7 57.9-85.8 14.1-33.3 21.2-68.6 21.2-105.1 0-81.4-50.4-180-145.8-285-47.1-51.8-94.8-93.6-124.3-117.9-29.5 24.2-77.1 65.7-124.1 117.3-66.5 72.9-145.8 181.7-145.8 285.6 0 36.5 7.1 71.8 21.2 105.1 13.6 32.1 33.1 61 57.9 85.8 24.8 24.8 53.7 44.3 85.8 57.9 33.3 14.1 68.6 21.2 105.1 21.2M512 832c-176.7 0-320-143.3-320-320 0-233 320-466.6 320-466.6s320 235.6 320 466.6c0 176.7-143.3 320-320 320zM472 575.9c0-22.091 17.909-40 40-40 22.091 0 40 17.909 40 40 0 22.091-17.909 40-40 40-22.091 0-40-17.909-40-40zM248.4 458.8c-4.3 18.4-6.4 36.1-6.4 53.2 0 72.1 28.1 139.9 79.1 190.9 51 51 118.8 79.1 190.9 79.1 19.1 0 38.1-2 56.5-5.9-150.9-47.8-270.6-166.7-320.1-317.3zM511.9 109.1c-34.4 28.2-93.3 79.9-147.4 143.8 19.9-3.5 40.1-5.2 60.5-5.2 184.1 0 335.6 142.1 350.8 322.3 4.1-18.9 6.2-38.3 6.2-57.9 0-81.4-50.4-180-145.8-285-47.1-51.9-94.8-93.7-124.3-118z"  horiz-adv-x="1024" />

    
    <glyph glyph-name="subscription_light" unicode="&#59382;" d="M236.8 85.333333m-64 0a64 64 0 1 1 128 0 64 64 0 1 1-128 0ZM258.133333 765.866667c-21.333333 0-44.8-2.133333-68.266666-4.266667-10.666667 0-19.2-10.666667-19.2-21.333333 2.133333-10.666667 10.666667-21.333333 23.466666-19.2 21.333333 2.133333 42.666667 4.266667 64 4.266666 341.333333 0 618.666667-277.333333 618.666667-618.666666 0-27.733333 0-46.933333-2.133333-61.866667 0-10.666667 8.533333-21.333333 19.2-23.466667h2.133333c10.666667 0 19.2 8.533333 21.333333 19.2 2.133333 14.933333 2.133333 36.266667 2.133334 66.133334 0 362.666667-296.533333 659.2-661.333334 659.2zM258.133333 471.466667c-23.466667 0-46.933333-2.133333-68.266666-6.4-10.666667-2.133333-19.2-12.8-17.066667-25.6s12.8-19.2 25.6-17.066667c19.2 4.266667 40.533333 6.4 61.866667 6.4 181.333333 0 330.666667-149.333333 330.666666-330.666667 0-19.2-2.133333-34.133333-6.4-53.333333-2.133333-10.666667 6.4-23.466667 17.066667-25.6h4.266667c10.666667 0 19.2 6.4 21.333333 17.066667 4.266667 21.333333 6.4 38.4 6.4 61.866666-2.133333 206.933333-168.533333 373.333333-375.466667 373.333334z"  horiz-adv-x="1024" />

    
    <glyph glyph-name="top" unicode="&#58924;" d="M910.222222 99.55555600000002c-17.066667 0-34.133333 5.688889-45.511111 17.066666L551.822222 486.4c-11.377778 5.688889-17.066667 11.377778-34.133333 11.377778-5.688889 0-22.755556-5.688889-28.444445-11.377778l-329.955555-364.088889c-22.755556-22.755556-56.888889-22.755556-79.644445-5.688889-22.755556 22.755556-22.755556 56.888889-5.688888 79.644445l329.955555 364.088889c28.444444 34.133333 73.955556 51.2 119.466667 51.2s85.333333-22.755556 119.466666-56.888889l312.888889-364.088889c22.755556-22.755556 17.066667-56.888889-5.688889-79.644445-11.377778-5.688889-28.444444-11.377778-39.822222-11.377777z"  horiz-adv-x="1024" />

    
    <glyph glyph-name="right" unicode="&#58925;" d="M312.888889-99.55555600000002c-17.066667 0-28.444444 5.688889-39.822222 17.066667-22.755556 22.755556-17.066667 56.888889 5.688889 79.644445l364.088888 329.955555c11.377778 11.377778 17.066667 22.755556 17.066667 34.133333 0 11.377778-5.688889 22.755556-17.066667 34.133334L273.066667 708.266667c-22.755556 22.755556-28.444444 56.888889-5.688889 79.644444 22.755556 22.755556 56.888889 28.444444 79.644444 5.688889l364.088889-312.888889c34.133333-28.444444 56.888889-73.955556 56.888889-119.466667s-17.066667-85.333333-51.2-119.466666l-364.088889-329.955556c-11.377778-5.688889-28.444444-11.377778-39.822222-11.377778z"  horiz-adv-x="1024" />

    
    <glyph glyph-name="goodsgreen" unicode="&#58886;" d="M732.2 410.9c-13.8 0-24.9 11.1-24.9 24.9V585.1c0 108.6-88.4 197-197 197s-197-88.4-197-197v-149.2c0-13.8-11.1-24.9-24.9-24.9-13.8 0-24.9 11.1-24.9 24.9V585.1c0 65.7 25.7 127.6 72.5 174.3 46.7 46.7 108.7 72.5 174.3 72.5s127.6-25.7 174.3-72.5c46.7-46.7 72.5-108.7 72.5-174.3v-149.2c0-13.8-11.2-25-24.9-25zM138.5 691.5h107.1v-133H138.5zM776.6 691.5h107.1v-133H776.6zM869.7-64.20000000000005H154.3c-30.6 0-55.7 25-55.7 55.7V558.7h826.7v-567.2c0-30.7-25-55.7-55.6-55.7zM925.3 558.7c-53.2 13.7-94.5 35.7-94.7 68.1-0.1 20.3 19.7 44.6 53 64.8l-375.6-0.2-369.6 0.2c32.7-20.1 53.2-44.5 53.1-64.8-0.2-32.3-40.7-54.3-92.9-68.1h826.7zM331.7 342.20000000000005m-63.7 0a63.7 63.7 0 1 1 127.4 0 63.7 63.7 0 1 1-127.4 0ZM772 342.1m-63.7 0a63.7 63.7 0 1 1 127.4 0 63.7 63.7 0 1 1-127.4 0ZM796.9 356.1h-49.8V505.4c0 6.5-1.4 13.7-2.9 21.4-1.9 9.8-4.1 20-3.7 31.9h49.8c4.7-12.7 6.6-42 6.6-53.3v-149.3zM353.1 356.1h-49.8V505.4c0 11.6 2 22.5 3.8 32.2 1.4 7.7 2.8 15.1 2.8 21.1h49.8c-3.3-11-6.5-42.7-6.5-53.3v-149.3zM291.8 342.20000000000005m-63.7 0a63.7 63.7 0 1 1 127.4 0 63.7 63.7 0 1 1-127.4 0ZM732.2 342.1m-63.7 0a63.7 63.7 0 1 1 127.4 0 63.7 63.7 0 1 1-127.4 0ZM732.2 331.20000000000005c-13.8 0-24.9 11.1-24.9 24.9V505.4c0 108.6-88.4 197-197 197s-197-88.4-197-197v-149.3c0-13.8-11.1-24.9-24.9-24.9-13.8 0-24.9 11.1-24.9 24.9V505.4c0 65.7 25.7 127.6 72.5 174.3 46.7 46.7 108.7 72.5 174.3 72.5s127.6-25.7 174.3-72.5c46.7-46.7 72.5-108.7 72.5-174.3v-149.3c0-13.7-11.2-24.9-24.9-24.9z"  horiz-adv-x="1024" />

    
    <glyph glyph-name="round_transfer" unicode="&#59410;" d="M512 835.2c-246.4 0-448-201.6-448-448s201.6-448 448-448 448 201.6 448 448-201.6 448-448 448z m0-832c-211.2 0-384 172.8-384 384s172.8 384 384 384 384-172.8 384-384c0-214.4-172.8-384-384-384zM320 416h384c19.2 0 32 12.8 32 32s-12.8 32-32 32h-284.8l51.2 38.4c12.8 9.6 16 32 6.4 44.8-9.6 12.8-32 16-44.8 6.4l-128-96c-9.6-9.6-16-22.4-12.8-35.2s16-22.4 28.8-22.4zM704 352H320c-19.2 0-32-12.8-32-32s12.8-32 32-32h284.8l-51.2-38.4c-12.8-9.6-16-32-6.4-44.8 6.4-9.6 16-12.8 25.6-12.8 6.4 0 12.8 3.2 19.2 6.4l128 96c9.6 9.6 16 22.4 12.8 35.2-3.2 12.8-16 22.4-28.8 22.4z"  horiz-adv-x="1024" />

    
    <glyph glyph-name="myself" unicode="&#59146;" d="M512 192c-176 0-320 144-320 320S336 832 512 832s320-144 320-320-144-320-320-320z m0 576c-140.8 0-256-115.2-256-256s115.2-256 256-256 256 115.2 256 256-115.2 256-256 256z m371.2-832c-8 0-17.6 3.2-24 9.6C768 43.200000000000045 644.8 96 512 96s-256-52.8-348.8-150.4c-12.8-12.8-32-12.8-44.8-1.6-12.8 12.8-12.8 32-1.6 44.8C220.8 99.20000000000005 361.6 160 512 160s291.2-60.8 395.2-169.6c12.8-12.8 11.2-33.6-1.6-44.8-6.4-6.4-14.4-9.6-22.4-9.6z"  horiz-adv-x="1024" />

    
    <glyph glyph-name="goodspink" unicode="&#59013;" d="M765.5 58.700000000000045H249.2c-52.2 0-93.4 44.1-90.1 96.1l32.3 494c3.1 47.4 42.5 84.4 90.1 84.4h452.1c47.6 0 87-37 90.1-84.4l32-494c3.3-52-38-96.1-90.2-96.1zM824.7 632.1l-1 16.7c-3 47.4-42.5 84.4-90.1 84.4h-15.2c41.2-27 77.3-61.3 106.3-101.1zM159.7 163.89999999999998l-0.6-9c-3.4-52.1 37.9-96.1 90.1-96.1h14.7c-40.8 28.3-76.2 64-104.2 105.1zM272.7 732.8c-38.1-3.7-69.6-31-78.9-67.7 23.4 25.8 49.9 48.6 78.9 67.7zM855.6 154.89999999999998l-2.8 42.9c-30.4-55.5-73.3-103.1-125-139h37.6c52.3-0.1 93.6 44 90.2 96.1zM337.2 733.2h-55.8c-2.9 0-5.8-0.1-8.6-0.4-29.1-19.2-55.6-41.9-78.9-67.7-1.4-5.2-2.2-10.7-2.6-16.3l-2.5-38.5c36.9 53.7 88.2 96.5 148.4 122.9zM852.9 197.79999999999995l-28.2 434.3c-29 39.8-65 74-106.3 101.1H619C742.6 679 828.9 555.6 828.9 411.9c0-193.8-157-350.8-350.8-350.8-136.4 0-254.6 77.8-312.6 191.5l-5.8-88.8c28-41.1 63.4-76.8 104.1-105.2h464.1c51.6 36 94.6 83.7 125 139.2zM478.1 61.200000000000045c193.8 0 350.8 157 350.8 350.8 0 143.6-86.3 267.1-209.9 321.3H337.2c-60.2-26.4-111.5-69.2-148.4-122.9l-5-76.6C225.5 646 333.5 726 460.2 726 623.1 726 755 594 755 431.2S623 136.39999999999998 460.2 136.39999999999998c-140.2 0-257.5 97.8-287.4 229l-7.3-112.6c58-113.8 176.1-191.6 312.6-191.6zM460.3 136.29999999999995c162.9 0 294.8 132 294.8 294.8S623.2 726 460.3 726c-126.7 0-234.7-79.9-276.4-192.2l-11-168.4c29.9-131.3 147.2-229.1 287.4-229.1z m-17.8 552.9c132 0 238.9-106.9 238.9-238.9s-107-238.9-238.9-238.9-238.9 106.9-238.9 238.9 106.9 238.9 238.9 238.9zM442.5 211.39999999999998c132 0 238.9 106.9 238.9 238.9s-107 238.9-238.9 238.9-238.9-106.9-238.9-238.9 106.9-238.9 238.9-238.9z m-17.9 441.1c101.1 0 183-81.9 183-183s-81.9-183-183-183-183 81.9-183 183 82 183 183 183zM424.6 286.6c101.1 0 183 81.9 183 183s-81.9 183-183 183-183-81.9-183-183 82-183 183-183z m-17.8 329.1c70.2 0 127-56.9 127-127s-56.9-126.9-127-126.9-126.9 56.9-126.9 127 56.8 126.9 126.9 126.9zM406.8 488.8m-127 0a127 127 0 1 1 254 0 127 127 0 1 1-254 0ZM765.5 49.700000000000045H249.2c-27.7 0-53.4 11.1-72.4 31.4-19 20.2-28.5 46.7-26.7 74.4l32.3 494c3.4 52.1 47 92.8 99.1 92.8h452.1c52.2 0 95.7-40.8 99.1-92.8l32-494c1.8-27.7-7.7-54.1-26.7-74.3-19-20.3-44.7-31.5-72.5-31.5zM281.4 724.3c-42.6 0-78.3-33.4-81.1-76l-32.3-494c-1.5-22.7 6.3-44.3 21.8-60.9s36.6-25.7 59.2-25.7h516.3c22.7 0 43.8 9.1 59.4 25.7 15.5 16.6 23.3 38.2 21.8 60.8l-32 494c-2.7 42.6-38.3 76-81.1 76h-452v0.1zM746.2 625.5c0 23.7-19.2 42.8-42.8 42.8-23.7 0-42.8-19.2-42.8-42.8 0-13.9 6.6-26.3 16.9-34-24.6-57.5-91.5-98.8-170-98.8s-145.4 41.3-170 98.8c10.3 7.9 16.9 20.2 16.9 34 0 23.7-19.2 42.8-42.8 42.8-23.7 0-42.8-19.2-42.8-42.8 0-20.4 14.2-37.5 33.3-41.8 10.5-27.8 28.8-53.2 54-74.3 40.6-33.9 94.5-52.6 151.6-52.6s110.9 18.6 151.6 52.6c25.2 21.1 43.6 46.5 54 74.3 18.7 4.4 32.9 21.5 32.9 41.8zM262.1 515.6l-6.3-124c-0.5-9.9-9-17.6-18.9-17.1s-17.6 9-17.1 18.9l6.3 124c0.5 9.9 9 17.6 18.9 17.1 10-0.5 17.6-9 17.1-18.9zM252.7 331.79999999999995l-0.5-10.5c-0.5-9.9-9-17.6-18.9-17.1s-17.6 9-17.1 18.9l0.5 10.5c0.5 9.9 9 17.6 18.9 17.1 10-0.5 17.6-9 17.1-18.9z"  horiz-adv-x="1024" />

    
    <glyph glyph-name="xinlangweibo" unicode="&#58897;" d="M452.8 293c7 11.6 3.5 24.5-8.2 27.9-10.5 4.7-24.5 0-31.4-10.5-7-10.5-3.5-23.3 7-27.9 11.6-5.8 25.6 0 32.6 10.5z m25.6 78c34.9-9.3 52.4-41.9 38.4-73.4-14-32.6-55.9-50.1-90.8-38.4-33.8 10.5-48.9 44.3-33.8 74.5 14 29.2 52.4 46.7 86.2 37.3z m-7-132.7c71 7 124.6 50.1 120 96.7-4.7 45.4-65.2 78-136.3 71-71-7-124.6-50.1-120-96.7 4.7-45.4 65.3-78 136.3-71z m141 154.9c24.5-8.1 52.4-26.8 52.4-59.4 0-53.6-76.9-121.1-193.3-121.1-88.5 0-179.4 43.1-179.4 114.1 0 37.3 23.3 79.2 62.9 120 53.6 53.6 116.5 78 139.8 54.7 10.5-10.5 11.7-28 4.7-50.1-3.5-10.5 10.5-4.7 10.5-4.7 43.1 18.6 81.5 19.8 95.5 0 7-10.5 7-25.6 0-43.1-3.6-6.9 1-8.1 6.9-10.4z m78 129.2c27.9-31.4 34.9-73.4 24.5-111.8-3.5-8.2-12.8-12.8-21-10.5-3.5 1.2-7 4.7-9.3 8.1-2.3 4.7-2.3 8.2-1.2 12.8 9.3 26.8 3.5 57.1-16.3 79.2s-50.1 30.3-76.9 24.5c-9.3-1.2-17.5 3.5-19.8 12.8-1.2 9.3 3.5 17.5 12.8 19.8 37.3 8.2 79.2-3.4 107.2-34.9z m-50.1-102.5c-7 2.3-11.6 10.5-9.3 18.6 2.3 9.3 1.2 19.8-5.8 26.8s-16.3 10.5-25.6 8.1c-7-2.3-15.1 2.3-16.3 10.5-2.3 7 2.3 15.1 10.5 16.3 18.6 3.5 38.4-2.3 52.4-17.5 14-15.1 17.5-34.9 11.6-53.6-2.3-8-10.5-11.5-17.5-9.2z m-129-452.5c230.1 0 416.6 186.5 416.6 416.6S741.4 800.6 511.3 800.6 94.8 614.1 94.8 384s186.5-416.6 416.5-416.6z m0-21.9C269.2-54.5 72.8 141.8 72.8 384S269.2 822.5 511.3 822.5 949.8 626.2 949.8 384 753.5-54.5 511.3-54.5z"  horiz-adv-x="1024" />

    
    <glyph glyph-name="weixingongzhonghao" unicode="&#58899;" d="M504.1 506.7c-13.8 0-26.3-8.8-26.3-21.3s12.5-21.3 26.3-21.3c12.5 0 21.3 8.8 21.3 21.3s-8.8 21.3-21.3 21.3z m-120.3-42.6c12.5 0 21.3 8.8 21.3 21.3s-8.8 21.3-21.3 21.3-25.1-8.8-25.1-21.3 12.5-21.3 25.1-21.3z m211.8-3.8c-81.5 0-145.4-60.2-145.4-135.4 0-12.5 2.5-25.1 5-36.3h-16.3c-21.3 0-37.6 3.8-58.9 8.8l-60.2-30.1 17.5 51.4c-43.9 30.1-68.9 67.7-68.9 115.3 0 81.5 76.4 145.4 170.4 145.4 85.2 0 157.9-51.4 173-120.3-5 1.2-11.2 1.2-16.2 1.2z m-36.4-111.5c12.5 0 21.3 7.5 21.3 16.3s-8.8 17.5-21.3 17.5c-8.8 0-17.5-8.8-17.5-17.5 0-8.8 8.7-16.3 17.5-16.3z m94 0c12.5 0 21.3 7.5 21.3 16.3s-8.8 17.5-21.3 17.5c-8.8 0-16.3-8.8-16.3-17.5 0-8.8 7.5-16.3 16.3-16.3z m99-21.3c0-38.9-26.3-72.7-60.2-99l12.5-42.6-46.4 25.1c-17.5-3.8-35.1-7.5-51.4-7.5-81.5 0-145.4 55.1-145.4 124.1 0 67.7 63.9 124.1 145.4 124.1 76.6-0.1 145.5-56.5 145.5-124.2zM510.5-35.2c230.9 0 418.1 187.2 418.1 418.1S741.4 801 510.5 801 92.4 613.8 92.4 382.9s187.2-418.1 418.1-418.1z m0-22c-243 0-440.1 197-440.1 440.1S267.4 823 510.5 823s440.1-197 440.1-440.1-197.1-440.1-440.1-440.1z"  horiz-adv-x="1024" />

    
    <glyph glyph-name="weixinxiaochengxu" unicode="&#58900;" d="M608.6 605.7c67.1 0 121.7-50.5 121.7-112.9 0-19.4-5.6-38.4-15.7-55.5-15.3-25-39.8-43.5-69.4-52.3-7.9-2.3-13.9-3.2-19.4-3.2-13 0-23.1 10.2-23.1 23.1 0 13 10.2 23.1 23.1 23.1 0.9 0 2.8 0 5.1 0.9 19.9 5.6 35.6 17.1 44.4 32.4 6 9.7 8.8 20.4 8.8 31.5 0 36.6-33.8 66.6-75 66.6-14.4 0-28.2-3.7-40.7-10.6-21.8-12.5-34.7-33.3-34.7-56v-193.9c0-39.3-21.8-75.4-57.9-95.8-19.4-11.1-41.2-16.7-63.4-16.7-67.1 0-121.7 50.5-121.7 112.9 0 19.4 5.6 38.4 15.7 55.5 15.3 25 39.8 43.5 69.4 52.3 8.3 2.3 13.9 3.2 19.4 3.2 13 0 23.1-10.2 23.1-23.1 0-13-10.2-23.1-23.1-23.1-0.9 0-2.8 0-5.1-0.9-19.9-6-35.6-17.6-44.4-32.4-6-9.7-8.8-20.4-8.8-31.5 0-36.6 33.8-66.6 75.4-66.6 14.4 0 28.2 3.7 40.7 10.6 21.8 12.5 34.7 33.3 34.7 56V492.7c0 39.3 21.8 75.4 57.9 95.8 19 11.6 40.7 17.2 63 17.2zM510.8-33c231.1 0 418.4 187.3 418.4 418.4S741.9 803.9 510.8 803.9 92.4 616.5 92.4 385.4 279.7-33 510.8-33z m0-22C267.5-55 70.3 142.2 70.3 385.4S267.5 825.9 510.8 825.9s440.5-197.2 440.5-440.5S754.1-55 510.8-55z"  horiz-adv-x="1024" />

    
    <glyph glyph-name="report" unicode="&#58884;" d="M77.312-47.10400000000004c-14.336 0-25.6 11.264-25.6 25.6V716.8c0 14.336 11.264 25.6 25.6 25.6s25.6-11.264 25.6-25.6v-738.304c0-13.824-11.776-25.6-25.6-25.6zM921.6 512H256c-42.496 0-76.8 34.304-76.8 76.8V640c0 42.496 34.304 76.8 76.8 76.8h665.6c42.496 0 76.8-34.304 76.8-76.8v-51.2c0-42.496-34.304-76.8-76.8-76.8z m-665.6 153.6c-14.336 0-25.6-11.264-25.6-25.6v-51.2c0-14.336 11.264-25.6 25.6-25.6h665.6c14.336 0 25.6 11.264 25.6 25.6V640c0 14.336-11.264 25.6-25.6 25.6H256zM716.8 256H256c-42.496 0-76.8 34.304-76.8 76.8v51.2c0 42.496 34.304 76.8 76.8 76.8h460.8c42.496 0 76.8-34.304 76.8-76.8v-51.2c0-42.496-34.304-76.8-76.8-76.8z m-460.8 153.6c-14.336 0-25.6-11.264-25.6-25.6v-51.2c0-14.336 11.264-25.6 25.6-25.6h460.8c14.336 0 25.6 11.264 25.6 25.6v51.2c0 14.336-11.264 25.6-25.6 25.6H256zM460.8 0H256c-42.496 0-76.8 34.304-76.8 76.8v51.2c0 42.496 34.304 76.8 76.8 76.8h204.8c42.496 0 76.8-34.304 76.8-76.8v-51.2c0-42.496-34.304-76.8-76.8-76.8z m-204.8 153.6c-14.336 0-25.6-11.264-25.6-25.6v-51.2c0-14.336 11.264-25.6 25.6-25.6h204.8c14.336 0 25.6 11.264 25.6 25.6v51.2c0 14.336-11.264 25.6-25.6 25.6H256z"  horiz-adv-x="1024" />

    
    <glyph glyph-name="mimakejian" unicode="&#58901;" d="M862.2 265.6c-0.4-0.6-0.8-1.1-1.1-1.7 0.3 0.6 0.7 1.1 1.1 1.7zM893.7 328.6c-0.2-0.6-0.5-1.3-0.7-1.9 0.3 0.6 0.5 1.3 0.7 1.9zM859.9 262.1c-0.4-0.6-0.8-1.1-1.2-1.7 0.4 0.6 0.8 1.2 1.2 1.7zM910.2 406.9c0-0.7-0.1-1.3-0.2-2 0.1 0.7 0.1 1.4 0.2 2zM910.5 411.3c0-0.6-0.1-1.3-0.1-1.9 0 0.6 0 1.2 0.1 1.9zM901.2 352.5c-0.2-0.7-0.4-1.3-0.5-2 0.1 0.7 0.3 1.4 0.5 2zM895.1 332.5c-0.2-0.6-0.4-1.3-0.7-1.9 0.2 0.7 0.5 1.3 0.7 1.9zM900.1 348.5c-0.2-0.7-0.4-1.3-0.6-2 0.2 0.7 0.4 1.3 0.6 2zM910.9 424.3v0zM884.3 305.5c-0.3-0.6-0.6-1.2-0.9-1.9 0.3 0.7 0.6 1.3 0.9 1.9zM897.7 340.5c-0.2-0.7-0.4-1.3-0.6-2 0.2 0.7 0.4 1.3 0.6 2zM847.6 245.2c-0.4-0.5-0.9-1.1-1.3-1.6 0.5 0.6 0.9 1.1 1.3 1.6zM852.7 251.9c-0.4-0.6-0.8-1.1-1.2-1.7 0.3 0.6 0.8 1.2 1.2 1.7zM910.7 415.6c0-0.6-0.1-1.2-0.1-1.8 0 0.6 0.1 1.2 0.1 1.8zM855.1 255.3c-0.4-0.6-0.8-1.1-1.2-1.7 0.4 0.6 0.8 1.1 1.2 1.7zM910.8 420c0-0.6 0-1.1-0.1-1.7 0.1 0.5 0.1 1.1 0.1 1.7zM896.4 336.5c-0.2-0.6-0.4-1.3-0.6-1.9 0.2 0.6 0.4 1.2 0.6 1.9zM857.5 258.7c-0.4-0.6-0.8-1.1-1.2-1.7 0.4 0.6 0.8 1.1 1.2 1.7zM850.2 248.6c-0.4-0.5-0.8-1.1-1.3-1.6 0.4 0.5 0.8 1 1.3 1.6zM878.9 294.3l-0.9-1.8 0.9 1.8zM907.9 385.6c-0.1-0.7-0.2-1.3-0.3-2 0.1 0.7 0.2 1.3 0.3 2zM902.2 356.6c-0.2-0.7-0.3-1.3-0.5-2 0.2 0.7 0.3 1.3 0.5 2zM877 290.7c-0.3-0.6-0.6-1.2-1-1.8 0.3 0.5 0.7 1.1 1 1.8zM875 287c-0.3-0.6-0.7-1.2-1-1.8 0.4 0.6 0.7 1.2 1 1.8zM887.7 313.1c-0.3-0.6-0.5-1.3-0.8-1.9 0.2 0.7 0.5 1.3 0.8 1.9zM898.9 344.5c-0.2-0.6-0.4-1.3-0.6-1.9 0.2 0.6 0.4 1.2 0.6 1.9zM908.5 389.8c-0.1-0.7-0.2-1.3-0.3-2 0.1 0.7 0.2 1.4 0.3 2zM906.6 377.2c-0.1-0.7-0.2-1.3-0.4-2 0.1 0.7 0.2 1.3 0.4 2zM882.6 301.8l-0.9-1.8 0.9 1.8zM905.8 373c-0.1-0.7-0.3-1.3-0.4-2 0.1 0.7 0.3 1.4 0.4 2zM907.3 381.4c-0.1-0.7-0.2-1.3-0.3-2 0 0.7 0.1 1.3 0.3 2zM880.8 298l-0.9-1.8c0.2 0.6 0.6 1.2 0.9 1.8zM886 309.3c-0.3-0.6-0.6-1.2-0.8-1.9 0.3 0.7 0.5 1.3 0.8 1.9zM905 368.9c-0.1-0.7-0.3-1.3-0.4-2 0.1 0.7 0.3 1.3 0.4 2zM866.7 272.6c-0.4-0.6-0.7-1.2-1.1-1.7 0.3 0.6 0.7 1.2 1.1 1.7zM903.2 360.7c-0.2-0.7-0.3-1.3-0.5-2 0.2 0.6 0.3 1.3 0.5 2zM892.3 324.7c-0.2-0.6-0.5-1.3-0.7-1.9 0.2 0.6 0.4 1.3 0.7 1.9zM868.8 276.2c-0.4-0.6-0.7-1.2-1.1-1.8 0.4 0.6 0.8 1.2 1.1 1.8zM904.1 364.8c-0.1-0.7-0.3-1.3-0.5-2 0.2 0.6 0.4 1.3 0.5 2zM845 241.9c-0.4-0.5-0.9-1.1-1.3-1.6 0.4 0.6 0.9 1.1 1.3 1.6zM909.8 402.6c-0.1-0.7-0.1-1.3-0.2-2 0.1 0.7 0.2 1.4 0.2 2zM864.5 269.1c-0.4-0.6-0.7-1.2-1.1-1.7 0.3 0.6 0.7 1.1 1.1 1.7zM909 394.1c-0.1-0.7-0.2-1.3-0.2-2 0 0.7 0.1 1.3 0.2 2zM909.5 398.4c-0.1-0.7-0.1-1.3-0.2-2 0 0.6 0.1 1.3 0.2 2zM889.3 317c-0.3-0.6-0.5-1.3-0.8-1.9 0.2 0.6 0.5 1.2 0.8 1.9zM873 283.4c-0.3-0.6-0.7-1.2-1-1.8 0.3 0.6 0.7 1.2 1 1.8zM870.9 279.8c-0.3-0.6-0.7-1.2-1-1.8 0.4 0.6 0.7 1.2 1 1.8zM890.8 320.8c-0.2-0.6-0.5-1.3-0.8-1.9 0.3 0.7 0.5 1.3 0.8 1.9zM590.8 104.3c-0.8-0.1-1.6-0.3-2.4-0.4 0.7 0.1 1.5 0.3 2.4 0.4zM595.7 105.1c-0.8-0.1-1.6-0.3-2.4-0.4 0.8 0.1 1.6 0.2 2.4 0.4zM600.6 105.9c-0.8-0.1-1.6-0.3-2.4-0.4 0.8 0.1 1.6 0.3 2.4 0.4zM610.4 107.7c-0.8-0.2-1.6-0.3-2.4-0.5 0.8 0.2 1.6 0.4 2.4 0.5zM615.3 108.7c-0.8-0.2-1.6-0.3-2.4-0.5 0.8 0.2 1.6 0.3 2.4 0.5zM605.5 106.8c-0.8-0.1-1.6-0.3-2.4-0.4 0.8 0.1 1.6 0.2 2.4 0.4zM570.7 101.6c-0.8-0.1-1.6-0.2-2.5-0.3 0.8 0.1 1.6 0.2 2.5 0.3zM671.3 123.9c-0.7-0.3-1.5-0.5-2.2-0.8 0.7 0.3 1.5 0.6 2.2 0.8zM580.8 102.8c-0.8-0.1-1.6-0.2-2.5-0.3 0.8 0.1 1.6 0.2 2.5 0.3zM560.4 100.5c-0.8-0.1-1.6-0.2-2.5-0.2 0.9 0.1 1.7 0.2 2.5 0.2zM585.8 103.5l-2.4-0.3c0.7 0.1 1.6 0.2 2.4 0.3zM575.7 102.2c-0.8-0.1-1.6-0.2-2.5-0.3 0.9 0.1 1.7 0.2 2.5 0.3zM653.1 118.2c-0.8-0.2-1.5-0.4-2.3-0.7 0.8 0.2 1.5 0.4 2.3 0.7zM648.5 116.8c-0.8-0.2-1.5-0.4-2.3-0.6 0.7 0.2 1.5 0.4 2.3 0.6zM657.7 119.5c-0.8-0.2-1.5-0.5-2.3-0.7 0.8 0.3 1.5 0.5 2.3 0.7zM662.3 121c-0.8-0.2-1.5-0.5-2.3-0.7 0.8 0.2 1.5 0.4 2.3 0.7zM666.8 122.4c-0.7-0.2-1.5-0.5-2.2-0.7 0.7 0.2 1.5 0.5 2.2 0.7zM634.4 113.1c-0.8-0.2-1.5-0.4-2.3-0.6 0.8 0.2 1.5 0.4 2.3 0.6zM629.7 111.9l-2.4-0.6 2.4 0.6zM624.9 110.8c-0.8-0.2-1.6-0.4-2.4-0.5 0.8 0.1 1.6 0.3 2.4 0.5zM639.1 114.3c-0.8-0.2-1.5-0.4-2.3-0.6 0.8 0.2 1.5 0.4 2.3 0.6zM643.8 115.5c-0.8-0.2-1.5-0.4-2.3-0.6 0.8 0.2 1.5 0.4 2.3 0.6zM620.1 109.7c-0.8-0.2-1.6-0.3-2.4-0.5 0.8 0.2 1.6 0.4 2.4 0.5zM565.6 101c-0.8-0.1-1.6-0.2-2.5-0.3 0.8 0.2 1.6 0.3 2.5 0.3zM555.3 100.1c-0.8-0.1-1.6-0.1-2.5-0.2 0.9 0.1 1.7 0.1 2.5 0.2zM534.6 98.8c-0.8 0-1.7-0.1-2.5-0.1 0.8 0 1.7 0 2.5 0.1zM539.8 99c-0.8 0-1.7-0.1-2.5-0.1 0.8 0 1.7 0.1 2.5 0.1zM550.2 99.7c-0.8-0.1-1.7-0.1-2.5-0.2 0.8 0.1 1.7 0.1 2.5 0.2zM545 99.3c-0.8-0.1-1.7-0.1-2.5-0.2 0.8 0.1 1.7 0.2 2.5 0.2zM529.4 98.6c-0.9 0-1.7-0.1-2.6-0.1 0.9 0 1.7 0.1 2.6 0.1zM524.1 98.4c-0.8 0-1.7 0-2.5-0.1 0.8 0.1 1.6 0.1 2.5 0.1zM518.8 98.3h-2.5 2.5zM675.8 125.5c-0.7-0.3-1.5-0.5-2.2-0.8 0.7 0.3 1.4 0.5 2.2 0.8zM797.3 193.5c-0.5-0.5-1.1-0.9-1.7-1.4 0.6 0.5 1.1 0.9 1.7 1.4zM793.9 190.7c-0.6-0.5-1.1-0.9-1.7-1.3 0.6 0.4 1.2 0.9 1.7 1.3zM807.1 201.9c-0.5-0.5-1.1-0.9-1.6-1.4 0.5 0.5 1.1 1 1.6 1.4zM803.9 199.1c-0.5-0.5-1.1-0.9-1.6-1.4 0.5 0.5 1 0.9 1.6 1.4zM800.6 196.3c-0.5-0.5-1.1-0.9-1.6-1.4 0.5 0.5 1 0.9 1.6 1.4zM790.5 188c-0.6-0.4-1.1-0.9-1.7-1.3 0.6 0.4 1.2 0.9 1.7 1.3zM787.1 185.3c-0.6-0.4-1.1-0.9-1.7-1.3 0.6 0.5 1.1 0.9 1.7 1.3zM776.6 177.5c-0.6-0.4-1.2-0.8-1.8-1.3 0.6 0.5 1.2 0.9 1.8 1.3zM769.4 172.5l-1.8-1.2 1.8 1.2zM780.1 180.1c-0.6-0.4-1.2-0.9-1.8-1.3 0.7 0.4 1.2 0.9 1.8 1.3zM783.6 182.7c-0.6-0.4-1.2-0.9-1.7-1.3 0.6 0.4 1.2 0.9 1.7 1.3zM773 175l-1.8-1.2 1.8 1.2zM831.3 225.9c-0.5-0.5-0.9-1-1.4-1.5 0.5 0.5 0.9 1 1.4 1.5zM810.3 204.8c-0.5-0.5-1-1-1.6-1.4 0.5 0.5 1 1 1.6 1.4zM839.7 235.5c-0.4-0.5-0.9-1.1-1.4-1.6 0.5 0.5 0.9 1 1.4 1.6zM828.4 222.8c-0.5-0.5-1-1-1.4-1.5 0.5 0.5 1 1 1.4 1.5zM836.9 232.2c-0.5-0.5-0.9-1-1.4-1.6 0.5 0.6 1 1.1 1.4 1.6zM834.1 229.1c-0.5-0.5-0.9-1-1.4-1.6 0.5 0.5 1 1.1 1.4 1.6zM825.5 219.7l-1.5-1.5 1.5 1.5zM816.5 210.7l-1.5-1.5 1.5 1.5zM813.4 207.7c-0.5-0.5-1-1-1.5-1.4 0.5 0.5 1 1 1.5 1.4zM822.6 216.7l-1.5-1.5 1.5 1.5zM819.5 213.7l-1.5-1.5 1.5 1.5zM680.2 127.1c-0.7-0.3-1.5-0.5-2.2-0.8 0.8 0.3 1.5 0.5 2.2 0.8zM706.2 137.6l-2.1-0.9 2.1 0.9zM710.4 139.5l-2.1-0.9c0.7 0.2 1.4 0.5 2.1 0.9zM701.9 135.7l-2.1-0.9 2.1 0.9zM722.8 145.4c-0.7-0.3-1.3-0.7-2-1 0.7 0.3 1.4 0.6 2 1zM714.6 141.4c-0.7-0.3-1.4-0.6-2.1-1 0.7 0.3 1.4 0.7 2.1 1zM718.7 143.4c-0.7-0.3-1.4-0.7-2-1 0.7 0.3 1.4 0.6 2 1zM684.6 128.7c-0.7-0.3-1.4-0.5-2.2-0.8 0.8 0.3 1.5 0.6 2.2 0.8zM842.4 238.7c-0.4-0.5-0.9-1.1-1.3-1.6 0.4 0.5 0.8 1 1.3 1.6zM697.7 133.9l-2.1-0.9 2.1 0.9zM689 130.4c-0.7-0.3-1.4-0.6-2.2-0.8 0.8 0.3 1.5 0.5 2.2 0.8zM693.4 132.1l-2.1-0.9c0.6 0.4 1.3 0.7 2.1 0.9zM750.6 160.5c-0.6-0.4-1.3-0.8-1.9-1.1 0.7 0.4 1.3 0.7 1.9 1.1zM765.7 170l-1.8-1.2 1.8 1.2zM746.8 158.2c-0.6-0.4-1.3-0.7-1.9-1.1 0.6 0.4 1.2 0.8 1.9 1.1zM754.4 162.8c-0.6-0.4-1.3-0.8-1.9-1.1 0.7 0.4 1.3 0.7 1.9 1.1zM762 167.6l-1.8-1.2c0.5 0.4 1.2 0.8 1.8 1.2zM758.2 165.2zM742.9 156c-0.6-0.4-1.3-0.7-1.9-1.1 0.6 0.4 1.2 0.7 1.9 1.1zM735 151.6c-0.7-0.4-1.3-0.7-2-1.1 0.7 0.4 1.3 0.8 2 1.1zM731 149.5c-0.7-0.3-1.3-0.7-2-1 0.6 0.3 1.3 0.7 2 1zM726.9 147.4c-0.7-0.3-1.3-0.7-2-1 0.7 0.3 1.4 0.7 2 1zM738.9 153.8c-0.6-0.4-1.3-0.7-1.9-1.1 0.6 0.4 1.3 0.7 1.9 1.1zM958.7 384.1C958.7 298.6 774.5 116 512 116 256.2 116 65.3 295.6 65.3 384.1 65.3 472.7 257 652 512 652c264.5 0 446.7-179.3 446.7-267.9z m-446.3 219c-118.9 0-215.2-98.1-215.2-219.1s96.4-219.1 215.2-219.1c118.9 0 215.3 98.1 215.3 219.1s-96.4 219.1-215.3 219.1z m0 0M512 523.9c-75.7 0-137.1-62.5-137.1-139.5S436.3 244.9 512 244.9s137.1 62.5 137.1 139.5S587.7 523.9 512 523.9z m0 0"  horiz-adv-x="1024" />

    
    <glyph glyph-name="jisusongda" unicode="&#58904;" d="M862.2 265.6c-0.4-0.6-0.8-1.1-1.1-1.7 0.3 0.6 0.7 1.1 1.1 1.7zM893.7 328.6c-0.2-0.6-0.5-1.3-0.7-1.9 0.3 0.6 0.5 1.3 0.7 1.9zM859.9 262.1c-0.4-0.6-0.8-1.1-1.2-1.7 0.4 0.6 0.8 1.2 1.2 1.7zM910.2 406.9c0-0.7-0.1-1.3-0.2-2 0.1 0.7 0.1 1.4 0.2 2zM910.5 411.3c0-0.6-0.1-1.3-0.1-1.9 0 0.6 0 1.2 0.1 1.9zM901.2 352.5c-0.2-0.7-0.4-1.3-0.5-2 0.1 0.7 0.3 1.4 0.5 2zM895.1 332.5c-0.2-0.6-0.4-1.3-0.7-1.9 0.2 0.7 0.5 1.3 0.7 1.9zM900.1 348.5c-0.2-0.7-0.4-1.3-0.6-2 0.2 0.7 0.4 1.3 0.6 2zM910.9 424.3v0zM884.3 305.5c-0.3-0.6-0.6-1.2-0.9-1.9 0.3 0.7 0.6 1.3 0.9 1.9zM897.7 340.5c-0.2-0.7-0.4-1.3-0.6-2 0.2 0.7 0.4 1.3 0.6 2zM847.6 245.2c-0.4-0.5-0.9-1.1-1.3-1.6 0.5 0.6 0.9 1.1 1.3 1.6zM852.7 251.9c-0.4-0.6-0.8-1.1-1.2-1.7 0.3 0.6 0.8 1.2 1.2 1.7zM910.7 415.6c0-0.6-0.1-1.2-0.1-1.8 0 0.6 0.1 1.2 0.1 1.8zM855.1 255.3c-0.4-0.6-0.8-1.1-1.2-1.7 0.4 0.6 0.8 1.1 1.2 1.7zM910.8 420c0-0.6 0-1.1-0.1-1.7 0.1 0.5 0.1 1.1 0.1 1.7zM896.4 336.5c-0.2-0.6-0.4-1.3-0.6-1.9 0.2 0.6 0.4 1.2 0.6 1.9zM857.5 258.7c-0.4-0.6-0.8-1.1-1.2-1.7 0.4 0.6 0.8 1.1 1.2 1.7zM850.2 248.6c-0.4-0.5-0.8-1.1-1.3-1.6 0.4 0.5 0.8 1 1.3 1.6zM878.9 294.3l-0.9-1.8 0.9 1.8zM907.9 385.6c-0.1-0.7-0.2-1.3-0.3-2 0.1 0.7 0.2 1.3 0.3 2zM902.2 356.6c-0.2-0.7-0.3-1.3-0.5-2 0.2 0.7 0.3 1.3 0.5 2zM877 290.7c-0.3-0.6-0.6-1.2-1-1.8 0.3 0.5 0.7 1.1 1 1.8zM875 287c-0.3-0.6-0.7-1.2-1-1.8 0.4 0.6 0.7 1.2 1 1.8zM887.7 313.1c-0.3-0.6-0.5-1.3-0.8-1.9 0.2 0.7 0.5 1.3 0.8 1.9zM898.9 344.5c-0.2-0.6-0.4-1.3-0.6-1.9 0.2 0.6 0.4 1.2 0.6 1.9zM908.5 389.8c-0.1-0.7-0.2-1.3-0.3-2 0.1 0.7 0.2 1.4 0.3 2zM906.6 377.2c-0.1-0.7-0.2-1.3-0.4-2 0.1 0.7 0.2 1.3 0.4 2zM882.6 301.8l-0.9-1.8 0.9 1.8zM905.8 373c-0.1-0.7-0.3-1.3-0.4-2 0.1 0.7 0.3 1.4 0.4 2zM907.3 381.4c-0.1-0.7-0.2-1.3-0.3-2 0 0.7 0.1 1.3 0.3 2zM880.8 298l-0.9-1.8c0.2 0.6 0.6 1.2 0.9 1.8zM886 309.3c-0.3-0.6-0.6-1.2-0.8-1.9 0.3 0.7 0.5 1.3 0.8 1.9zM905 368.9c-0.1-0.7-0.3-1.3-0.4-2 0.1 0.7 0.3 1.3 0.4 2zM866.7 272.6c-0.4-0.6-0.7-1.2-1.1-1.7 0.3 0.6 0.7 1.2 1.1 1.7zM903.2 360.7c-0.2-0.7-0.3-1.3-0.5-2 0.2 0.6 0.3 1.3 0.5 2zM892.3 324.7c-0.2-0.6-0.5-1.3-0.7-1.9 0.2 0.6 0.4 1.3 0.7 1.9zM868.8 276.2c-0.4-0.6-0.7-1.2-1.1-1.8 0.4 0.6 0.8 1.2 1.1 1.8zM904.1 364.8c-0.1-0.7-0.3-1.3-0.5-2 0.2 0.6 0.4 1.3 0.5 2zM845 241.9c-0.4-0.5-0.9-1.1-1.3-1.6 0.4 0.6 0.9 1.1 1.3 1.6zM909.8 402.6c-0.1-0.7-0.1-1.3-0.2-2 0.1 0.7 0.2 1.4 0.2 2zM864.5 269.1c-0.4-0.6-0.7-1.2-1.1-1.7 0.3 0.6 0.7 1.1 1.1 1.7zM909 394.1c-0.1-0.7-0.2-1.3-0.2-2 0 0.7 0.1 1.3 0.2 2zM909.5 398.4c-0.1-0.7-0.1-1.3-0.2-2 0 0.6 0.1 1.3 0.2 2zM889.3 317c-0.3-0.6-0.5-1.3-0.8-1.9 0.2 0.6 0.5 1.2 0.8 1.9zM873 283.4c-0.3-0.6-0.7-1.2-1-1.8 0.3 0.6 0.7 1.2 1 1.8zM870.9 279.8c-0.3-0.6-0.7-1.2-1-1.8 0.4 0.6 0.7 1.2 1 1.8zM890.8 320.8c-0.2-0.6-0.5-1.3-0.8-1.9 0.3 0.7 0.5 1.3 0.8 1.9zM590.8 104.3c-0.8-0.1-1.6-0.3-2.4-0.4 0.7 0.1 1.5 0.3 2.4 0.4zM595.7 105.1c-0.8-0.1-1.6-0.3-2.4-0.4 0.8 0.1 1.6 0.2 2.4 0.4zM600.6 105.9c-0.8-0.1-1.6-0.3-2.4-0.4 0.8 0.1 1.6 0.3 2.4 0.4zM610.4 107.7c-0.8-0.2-1.6-0.3-2.4-0.5 0.8 0.2 1.6 0.4 2.4 0.5zM615.3 108.7c-0.8-0.2-1.6-0.3-2.4-0.5 0.8 0.2 1.6 0.3 2.4 0.5zM605.5 106.8c-0.8-0.1-1.6-0.3-2.4-0.4 0.8 0.1 1.6 0.2 2.4 0.4zM570.7 101.6c-0.8-0.1-1.6-0.2-2.5-0.3 0.8 0.1 1.6 0.2 2.5 0.3zM671.3 123.9c-0.7-0.3-1.5-0.5-2.2-0.8 0.7 0.3 1.5 0.6 2.2 0.8zM580.8 102.8c-0.8-0.1-1.6-0.2-2.5-0.3 0.8 0.1 1.6 0.2 2.5 0.3zM560.4 100.5c-0.8-0.1-1.6-0.2-2.5-0.2 0.9 0.1 1.7 0.2 2.5 0.2zM585.8 103.5l-2.4-0.3c0.7 0.1 1.6 0.2 2.4 0.3zM575.7 102.2c-0.8-0.1-1.6-0.2-2.5-0.3 0.9 0.1 1.7 0.2 2.5 0.3zM653.1 118.2c-0.8-0.2-1.5-0.4-2.3-0.7 0.8 0.2 1.5 0.4 2.3 0.7zM648.5 116.8c-0.8-0.2-1.5-0.4-2.3-0.6 0.7 0.2 1.5 0.4 2.3 0.6zM657.7 119.5c-0.8-0.2-1.5-0.5-2.3-0.7 0.8 0.3 1.5 0.5 2.3 0.7zM662.3 121c-0.8-0.2-1.5-0.5-2.3-0.7 0.8 0.2 1.5 0.4 2.3 0.7zM666.8 122.4c-0.7-0.2-1.5-0.5-2.2-0.7 0.7 0.2 1.5 0.5 2.2 0.7zM634.4 113.1c-0.8-0.2-1.5-0.4-2.3-0.6 0.8 0.2 1.5 0.4 2.3 0.6zM629.7 111.9l-2.4-0.6 2.4 0.6zM624.9 110.8c-0.8-0.2-1.6-0.4-2.4-0.5 0.8 0.1 1.6 0.3 2.4 0.5zM639.1 114.3c-0.8-0.2-1.5-0.4-2.3-0.6 0.8 0.2 1.5 0.4 2.3 0.6zM643.8 115.5c-0.8-0.2-1.5-0.4-2.3-0.6 0.8 0.2 1.5 0.4 2.3 0.6zM620.1 109.7c-0.8-0.2-1.6-0.3-2.4-0.5 0.8 0.2 1.6 0.4 2.4 0.5zM565.6 101c-0.8-0.1-1.6-0.2-2.5-0.3 0.8 0.2 1.6 0.3 2.5 0.3zM555.3 100.1c-0.8-0.1-1.6-0.1-2.5-0.2 0.9 0.1 1.7 0.1 2.5 0.2zM534.6 98.8c-0.8 0-1.7-0.1-2.5-0.1 0.8 0 1.7 0 2.5 0.1zM539.8 99c-0.8 0-1.7-0.1-2.5-0.1 0.8 0 1.7 0.1 2.5 0.1zM550.2 99.7c-0.8-0.1-1.7-0.1-2.5-0.2 0.8 0.1 1.7 0.1 2.5 0.2zM545 99.3c-0.8-0.1-1.7-0.1-2.5-0.2 0.8 0.1 1.7 0.2 2.5 0.2zM529.4 98.6c-0.9 0-1.7-0.1-2.6-0.1 0.9 0 1.7 0.1 2.6 0.1zM524.1 98.4c-0.8 0-1.7 0-2.5-0.1 0.8 0.1 1.6 0.1 2.5 0.1zM518.8 98.3h-2.5 2.5zM675.8 125.5c-0.7-0.3-1.5-0.5-2.2-0.8 0.7 0.3 1.4 0.5 2.2 0.8zM797.3 193.5c-0.5-0.5-1.1-0.9-1.7-1.4 0.6 0.5 1.1 0.9 1.7 1.4zM793.9 190.7c-0.6-0.5-1.1-0.9-1.7-1.3 0.6 0.4 1.2 0.9 1.7 1.3zM807.1 201.9c-0.5-0.5-1.1-0.9-1.6-1.4 0.5 0.5 1.1 1 1.6 1.4zM803.9 199.1c-0.5-0.5-1.1-0.9-1.6-1.4 0.5 0.5 1 0.9 1.6 1.4zM800.6 196.3c-0.5-0.5-1.1-0.9-1.6-1.4 0.5 0.5 1 0.9 1.6 1.4zM790.5 188c-0.6-0.4-1.1-0.9-1.7-1.3 0.6 0.4 1.2 0.9 1.7 1.3zM787.1 185.3c-0.6-0.4-1.1-0.9-1.7-1.3 0.6 0.5 1.1 0.9 1.7 1.3zM776.6 177.5c-0.6-0.4-1.2-0.8-1.8-1.3 0.6 0.5 1.2 0.9 1.8 1.3zM769.4 172.5l-1.8-1.2 1.8 1.2zM780.1 180.1c-0.6-0.4-1.2-0.9-1.8-1.3 0.7 0.4 1.2 0.9 1.8 1.3zM783.6 182.7c-0.6-0.4-1.2-0.9-1.7-1.3 0.6 0.4 1.2 0.9 1.7 1.3zM773 175l-1.8-1.2 1.8 1.2zM831.3 225.9c-0.5-0.5-0.9-1-1.4-1.5 0.5 0.5 0.9 1 1.4 1.5zM810.3 204.8c-0.5-0.5-1-1-1.6-1.4 0.5 0.5 1 1 1.6 1.4zM839.7 235.5c-0.4-0.5-0.9-1.1-1.4-1.6 0.5 0.5 0.9 1 1.4 1.6zM828.4 222.8c-0.5-0.5-1-1-1.4-1.5 0.5 0.5 1 1 1.4 1.5zM836.9 232.2c-0.5-0.5-0.9-1-1.4-1.6 0.5 0.6 1 1.1 1.4 1.6zM834.1 229.1c-0.5-0.5-0.9-1-1.4-1.6 0.5 0.5 1 1.1 1.4 1.6zM825.5 219.7l-1.5-1.5 1.5 1.5zM816.5 210.7l-1.5-1.5 1.5 1.5zM813.4 207.7c-0.5-0.5-1-1-1.5-1.4 0.5 0.5 1 1 1.5 1.4zM822.6 216.7l-1.5-1.5 1.5 1.5zM819.5 213.7l-1.5-1.5 1.5 1.5zM680.2 127.1c-0.7-0.3-1.5-0.5-2.2-0.8 0.8 0.3 1.5 0.5 2.2 0.8zM706.2 137.6l-2.1-0.9 2.1 0.9zM710.4 139.5l-2.1-0.9c0.7 0.2 1.4 0.5 2.1 0.9zM701.9 135.7l-2.1-0.9 2.1 0.9zM722.8 145.4c-0.7-0.3-1.3-0.7-2-1 0.7 0.3 1.4 0.6 2 1zM714.6 141.4c-0.7-0.3-1.4-0.6-2.1-1 0.7 0.3 1.4 0.7 2.1 1zM718.7 143.4c-0.7-0.3-1.4-0.7-2-1 0.7 0.3 1.4 0.6 2 1zM684.6 128.7c-0.7-0.3-1.4-0.5-2.2-0.8 0.8 0.3 1.5 0.6 2.2 0.8zM842.4 238.7c-0.4-0.5-0.9-1.1-1.3-1.6 0.4 0.5 0.8 1 1.3 1.6zM697.7 133.9l-2.1-0.9 2.1 0.9zM689 130.4c-0.7-0.3-1.4-0.6-2.2-0.8 0.8 0.3 1.5 0.5 2.2 0.8zM693.4 132.1l-2.1-0.9c0.6 0.4 1.3 0.7 2.1 0.9zM750.6 160.5c-0.6-0.4-1.3-0.8-1.9-1.1 0.7 0.4 1.3 0.7 1.9 1.1zM765.7 170l-1.8-1.2 1.8 1.2zM746.8 158.2c-0.6-0.4-1.3-0.7-1.9-1.1 0.6 0.4 1.2 0.8 1.9 1.1zM754.4 162.8c-0.6-0.4-1.3-0.8-1.9-1.1 0.7 0.4 1.3 0.7 1.9 1.1zM762 167.6l-1.8-1.2c0.5 0.4 1.2 0.8 1.8 1.2zM758.2 165.2zM742.9 156c-0.6-0.4-1.3-0.7-1.9-1.1 0.6 0.4 1.2 0.7 1.9 1.1zM735 151.6c-0.7-0.4-1.3-0.7-2-1.1 0.7 0.4 1.3 0.8 2 1.1zM731 149.5c-0.7-0.3-1.3-0.7-2-1 0.6 0.3 1.3 0.7 2 1zM726.9 147.4c-0.7-0.3-1.3-0.7-2-1 0.7 0.3 1.4 0.7 2 1zM738.9 153.8c-0.6-0.4-1.3-0.7-1.9-1.1 0.6 0.4 1.3 0.7 1.9 1.1zM512-63.5c-9.6 0-19.2 1.7-28.3 5.1-77.5 28.9-330.3 139.8-330.3 355.7V647.6c0 34.7 21.7 65.9 54 77.7L484.2 826.6c17.9 6.6 37.7 6.5 55.6 0l276.8-101.2c32.3-11.8 54-43.1 54-77.7v-350.3c0-216-252.8-326.9-330.3-355.7-9.2-3.5-18.7-5.2-28.3-5.2z m0 845c-3.6 0-7.2-0.6-10.6-1.9L224.6 678.5c-12.7-4.6-21.2-17-21.2-30.8v-350.3c0-77.6 40.6-148.8 120.7-211.8 68.1-53.5 146.5-85.7 177-97.1 7.1-2.6 14.6-2.6 21.6 0 30.6 11.4 109 43.6 177 97.1 80.1 62.9 120.7 134.2 120.7 211.8V647.7c0 13.8-8.5 26.1-21.2 30.8L522.6 779.6c-3.4 1.3-7 1.9-10.6 1.9zM709.7 557.8H311.9c-13.8 0-25 11.2-25 25s11.2 25 25 25h397.9c13.8 0 25-11.2 25-25s-11.3-25-25.1-25zM536.5 232.4c-13.8 0-25 11.2-25 25V582.8c0 13.8 11.2 25 25 25s25-11.2 25-25v-325.4c0-13.8-11.2-25-25-25zM709.7 219.5H311.9c-13.8 0-25 11.2-25 25s11.2 25 25 25h397.9c13.8 0 25-11.2 25-25s-11.3-25-25.1-25zM389.2 219.5c-13.8 0-25 11.2-25 25V476.8c0 13.8 11.2 25 25 25s25-11.2 25-25v-232.4c0-13.7-11.2-24.9-25-24.9zM687.5 407.6h-131c-13.8 0-25 11.2-25 25s11.2 25 25 25h131c13.8 0 25-11.2 25-25s-11.2-25-25-25z"  horiz-adv-x="1024" />

    
    <glyph glyph-name="ziyuan" unicode="&#58895;" d="M1435.179899 876.61386a42.761657 42.761657 0 0 1-42.761657 18.815129L35.448328 652.542778a42.761657 42.761657 0 0 1-21.380828-73.835128l296.765899-270.253672V14.538856a42.761657 42.761657 0 0 1 70.129117-31.358548l150.235955 126.004349 246.877299-224.641238a42.761657 42.761657 0 0 1 28.507772-11.11803h5.701554a42.761657 42.761657 0 0 1 30.503315 19.385284L1436.035132 829.861115a42.761657 42.761657 0 0 1-0.855233 46.752745zM1125.87058 760.302153L362.147387 377.442785l-226.351704 206.111186zM396.356713 106.33388v124.293883l71.269428-64.712641zM798.316288-19.385391L429.995883 315.865999 1278.957312 741.487024z"  horiz-adv-x="1443" />

    
    <glyph glyph-name="msg" unicode="&#58954;" d="M824.5 69.29999999999995H221.7c-17.3 0-33.4 8.6-43.1 22.9-9.7 14.4-11.6 32.5-5.1 48.6l49.2 121.5V446.9c0 38.9 7.7 76.7 22.9 112.4 14.6 34.4 35.5 65.3 62.1 91.9 26.6 26.6 57.5 47.5 91.9 62.1 35.7 15.2 73.5 22.9 112.4 22.9h0.7c38.9 0 76.7-7.7 112.4-22.9 34.4-14.6 65.3-35.5 91.9-62.1 26.6-26.6 47.5-57.5 62.1-91.9 15.2-35.7 22.9-73.5 22.9-112.4v-182.3l67.5-117.4c9.4-16.3 9.3-35.7-0.1-52-9.3-16.2-26.2-25.9-44.9-25.9z m-585 64h564.2L738 247.5V446.9c0 59.9-23.5 116.4-66.2 159.1-42.7 42.7-99.2 66.2-159.1 66.2h-0.7c-59.9 0-116.4-23.5-159.1-66.2-42.7-42.7-66.2-99.2-66.2-159.1v-197.1l-47.2-116.5zM432.8 663.2c-13.5 0-25.4 9.7-27.8 23.4-1.1 6.2-1.6 12.5-1.6 18.7 0 59.5 48.4 108 108 108s108-48.4 108-108c0-6.2-0.6-12.5-1.6-18.7-2.7-15.2-17.1-25.5-32.4-23l-56.8 9.2c-11.4 1.9-23 1.9-34.5 0l-56.8-9.2c-1.5-0.3-3-0.4-4.5-0.4z m78.5 67.5c8.8 0 17.6-0.7 26.3-2.1l21.2-3.4c-7.8 18.5-26.1 31.6-47.5 31.6s-39.7-13.1-47.5-31.6l21.2 3.4c8.8 1.4 17.6 2.1 26.3 2.1zM658-50H376.7c-17.6 0-32 14.4-32 32s14.4 32 32 32H658c17.6 0 32-14.4 32-32s-14.4-32-32-32z"  horiz-adv-x="1024" />

    
    <glyph glyph-name="dingzhi" unicode="&#58916;" d="M0 384a512 512 0 1 1 1024 0A512 512 0 1 1 0 384zM291.806 168.903l148.451 41.686 15.29 15.29-104.543 104.543-15.42-15.551-43.778-145.968z m76.709 178.246l104.543-104.544 204.12 205.036-104.543 104.543-204.12-205.035z m355.838 210l-42.078 42.08c-24.045 24.044-38.42 24.044-62.334 0l-29.795-29.926L694.689 464.76l29.664 29.664c24.045 24.175 24.045 38.42 0 62.464z m-285.925 39.074c-24.045 24.044-38.42 24.044-62.465 0l-99.446-99.316-17.38 17.38L363.678 618.83a61.55 61.55 0 0 0 87.033 0l57.629-57.63-17.511-18.033-52.272 52.271zM320.163 488.151l34.76 34.891 17.512-17.51-34.891-34.761-2.091 2.09 19.47-19.47 52.273 52.271 17.38-17.38-52.272-52.272 5.358-5.227-17.38-18.295-83.765 83.765 17.51 17.38 26.136-26.135zM563.88 244.304l52.271-52.271 26.136-26.136 81.936 81.936c24.175 24.044 24.175 38.42 0 62.464l-54.886 55.016 17.38 17.38 60.113-60.112a61.55 61.55 0 0 0 0-87.032l-87.163-87.032-17.38-17.38-17.38 17.38-86.249 86.248 17.38 17.38 7.842-7.84zM633.662 279.196l-52.271-52.272-17.511 17.38 52.271 52.272 17.511-17.38z m8.625-26.136l17.38-17.38-43.516-43.517-17.38 17.38 43.516 43.517z"  horiz-adv-x="1024" />

    
    <glyph glyph-name="user" unicode="&#58881;" d="M1023.296 32c0-10.944-2.24-21.312-3.264-32h-64c1.216 10.624 3.264 21.056 3.264 32a287.68 287.68 0 0 1-281.792 287.36 476.352 476.352 0 0 1-61.44 47.488c3.456 8 5.312 16.704 8 25.024C639.104 387.2 654.72 384 671.296 384a160 160 0 0 1 0 320 158.72 158.72 0 0 1-102.08-37.696 286.848 286.848 0 0 1-46.656 44.032A222.272 222.272 0 0 0 671.296 768 224 224 0 0 0 798.08 359.48800000000006 351.36 351.36 0 0 0 1023.296 32zM478.08 295.48800000000006A351.04 351.04 0 0 0 700.8 0h-64.768c-16.064 143.808-136.64 256-284.736 256S82.624 143.808 66.496 0H1.792a350.976 350.976 0 0 0 222.72 295.488 224 224 0 1 0 253.568 0zM351.296 640a160 160 0 1 1 0-320 160 160 0 0 1 0 320z"  horiz-adv-x="1024" />

    
    <glyph glyph-name="zhiding" unicode="&#58889;" d="M367.488 228.096h423.744v-47.232H367.488v47.232zM320.256 691.648h137.28v-68.992h-137.28v68.992zM367.488 141.888h423.744v-48H367.488v48zM693.76 691.648h137.984v-68.992H693.76v68.992zM507.008 691.648h137.28v-68.992h-137.28v68.992zM1792.512 896H127.488C57.472 896 0 838.848 0 768.384v-768.768C0-70.72 57.088-128 127.488-128h1665.088c69.952 0 127.424 57.152 127.424 127.616V768.384C1920 838.784 1862.912 896 1792.512 896z m-528-175.104h446.976v-54.016H1494.72l-24-101.248h206.976V206.4h-57.728V511.68h-289.472v-308.224h-57.728v362.24h140.224l20.992 101.248h-169.472v53.952z m-996.032 11.2h614.272v-167.232h-51.008v17.28H320.256v-17.28H268.48V732.096z m678.784-681.728h-744v43.52h111.744V441.152h229.504v48.704H221.248v42.048h323.264v39.744h54.016v-39.744h331.52v-41.984h-331.52v-48.768h245.248v-347.264h103.488v-43.52z m203.264 94.528c0-59.52-30.72-89.28-92.224-89.28-25.472 0-46.016 0.512-61.504 1.472-2.496 22.976-6.528 45.248-12.032 66.752 22.976-5.504 46.72-8.256 71.232-8.256 24 0 35.968 11.52 35.968 34.496V648.128H971.2v54.72h278.976v-54.72H1150.4v-503.232z m521.216-121.536c-67.008 55.488-137.28 108.032-210.752 157.504-4.992-9.984-10.496-19.008-16.512-27.008-41.472-57.024-113.28-101.504-215.232-133.504-9.472 16.512-21.504 34.496-35.968 54.016 94.528 27.008 161.28 64.512 200.256 112.512 34.496 44.992 51.776 113.024 51.776 204.032V474.88h57.728v-82.496c0-62.528-6.72-115.776-20.224-159.744 84.48-54.016 161.472-107.008 230.976-158.976l-42.048-50.304zM367.488 400.64h423.744v-47.232H367.488V400.64zM367.488 314.368h423.744v-47.232H367.488v47.232z"  horiz-adv-x="1920" />

    
    <glyph glyph-name="fanhuidingbuzhiding" unicode="&#58890;" d="M169.472 815.836h684.857c37.15 0 70.996-15.237 95.501-39.747l0.094-0.094c24.51-24.524 39.746-58.337 39.746-95.518v-609.644c0-37.166-15.235-70.977-39.746-95.502l-0.094-0.11c-24.505-24.509-58.351-39.73-95.5-39.73H169.471c-37.166 0-70.978 15.221-95.503 39.73l-0.092 0.11c-24.51 24.525-39.747 58.336-39.747 95.502V680.478c0 37.259 15.222 71.102 39.747 95.612 24.507 24.524 58.353 39.746 95.595 39.746z m477.16-499.29H753.2a17.86 17.86 0 0 1 12.673 5.254c7.016 7 7.016 18.374 0 25.374L540.311 572.735h206.553c14.865 0 26.92 12.053 26.92 26.92 0 14.85-12.055 26.905-26.92 26.905h-469.93c-14.865 0-26.903-12.054-26.903-26.905 0-14.867 12.038-26.92 26.904-26.92h206.538l-225.56-225.56a17.85 17.85 0 0 1-5.27-12.687c0-9.906 8.038-17.942 17.959-17.942h106.551V109.95c0-9.923 8.034-17.958 17.943-17.958h233.612c9.891 0 17.926 8.035 17.926 17.958V316.546h-0.001z m-35.881-188.672V334.488c0 9.906 8.035 17.942 17.956 17.942H709.9L511.908 550.421 313.902 352.43h81.193c9.904 0 17.942-8.035 17.942-17.942v-206.613h197.714z m243.578 634.121H169.472c-22.376 0-42.762-9.177-57.55-23.951-14.773-14.79-23.951-35.174-23.951-57.566v-609.644c0-22.422 9.147-42.82 23.905-57.596 14.792-14.757 35.173-23.923 57.597-23.923h684.856c22.407 0 42.808 9.166 57.58 23.923 14.771 14.774 23.922 35.174 23.922 57.596V680.478c0 22.44-9.15 42.821-23.921 57.612-14.773 14.756-35.174 23.905-57.58 23.905z"  horiz-adv-x="1024" />

    
    <glyph glyph-name="xinjian-xianxing" unicode="&#58893;" d="M920.598 476.069H578.873V817.613a56.894 56.894 0 1 1-113.698 0v-341.544h-340.73a56.894 56.894 0 1 1 0-113.698h340.82V21.46a56.894 56.894 0 0 1 113.789 0V362.552h341.544a56.804 56.804 0 1 1 0 113.517z"  horiz-adv-x="1024" />

    
    <glyph glyph-name="exit" unicode="&#58898;" d="M909.7728 378.624L746.3424 526.336a33.9456 33.9456 0 0 1-45.7728 0 26.7264 26.7264 0 0 1 0-41.3696L808.448 387.4816H494.592c-19.5584 0-32.6656-11.8272-32.6656-29.5424 0-17.7664 13.1072-29.5424 32.7168-29.5424H808.448L700.5696 230.86080000000004a26.7264 26.7264 0 0 1 0-41.3696 31.1808 31.1808 0 0 1 22.8864-8.8576 31.232 31.232 0 0 1 22.8864 8.8576l163.4304 150.6816s0 2.9696 3.2768 2.9696a22.784 22.784 0 0 1-3.2768 35.4816zM102.4 68.81280000000004C102.4 15.30880000000002 145.664-25.600000000000023 202.24-25.600000000000023h566.016c56.576 0 99.84 40.9088 99.84 94.4128v62.976c0 18.8416-13.312 31.4368-33.28 31.4368s-33.28-12.5952-33.28-31.488v-62.976c0-18.8416-13.312-31.4368-33.28-31.4368H202.24c-19.968 0-33.28 12.5952-33.28 31.488V698.1632c0 18.8928 13.312 31.488 33.28 31.488h565.9648c19.968 0 33.28-12.5952 33.28-31.488v-62.9248c0-18.8928 13.312-31.488 33.28-31.488s33.28 12.5952 33.28 31.488v62.976C868.096 751.616 824.832 792.576 768.256 792.576H202.24C145.664 792.576 102.4 751.6672 102.4 698.1632"  horiz-adv-x="1024" />

    
    <glyph glyph-name="collect" unicode="&#58882;" d="M513.024 24.263680000000022h-0.9216c-17.80736 0.1024-44.41088 8.90368-63.74912 28.13952l-312.30464 325.20192c-0.4096 0.4096-0.8192 0.9216-1.2288 1.4336C95.93344 427.64288 72.192 460.8 72.192 528.3328c0 58.32704 23.33184 115.01568 64.05632 155.54048C176.77312 724.29056 232.02816 746.496 291.8912 746.496h0.8192c43.59168-0.1024 85.23776-13.19936 120.44288-38.0672a21.13536 21.13536 0 0 0 5.11488-29.36832c-6.65088-9.51808-19.85024-11.76576-29.36832-5.11488-28.03712 19.74784-61.29664 30.28992-96.18944 30.28992h-0.7168c-49.32096 0-92.81024-17.39776-125.86496-50.34496-32.84992-32.74752-51.57376-78.48448-51.57376-125.66016 0-53.51936 17.19296-77.56288 52.80256-122.17856l311.28064-324.17792c11.15136-11.15136 26.91072-15.45216 34.0736-15.55456 4.70528 0.1024 11.25376 1.7408 25.57952 16.06656 3.072 2.8672 252.6464 234.74176 321.10592 319.87712 37.0432 45.94688 56.58624 91.47904 56.58624 131.49184 0 91.58144-87.08096 178.15552-179.2768 178.15552-27.72992 0-84.93056-9.82528-123.40736-46.76608-32.13312-31.00672-123.61216-123.91936-124.53376-124.84096a21.15072 21.15072 0 0 0-29.88032-0.2048 21.15072 21.15072 0 0 0-0.2048 29.88032c3.78368 3.78368 92.81024 94.14144 125.35296 125.66016 45.12768 43.18208 110.4128 58.53184 152.67328 58.53184 115.93728 0 221.44-104.99072 221.44-220.3136 0-49.73056-22.81984-104.37632-65.89952-157.89056-70.5024-87.59296-314.55744-314.25024-324.89472-323.87072-19.33312-19.33824-35.80928-27.83232-54.32832-27.83232z"  horiz-adv-x="1024" />

    
    <glyph glyph-name="goodsred" unicode="&#59501;" d="M827.036735 46.49795900000004H196.963265c-25.6 0-49.110204 11.493878-64.783673 30.82449-15.15102 18.808163-20.37551 42.840816-15.151021 65.828571l75.755102 327.575511c8.359184 36.571429 41.273469 62.171429 79.934694 62.171428h479.085715c38.661224 0 71.57551-25.6 79.934694-62.171428l75.755102-327.575511c5.22449-22.987755 0-47.020408-15.151021-65.828571-16.195918-19.330612-39.706122-30.82449-65.306122-30.82449zM636.342857 334.367347c-10.971429 0-19.853061 8.881633-19.853061 19.853061V577.828571c0 57.469388-46.497959 104.489796-104.489796 104.489796s-104.489796-47.020408-104.489796-104.489796v-223.608163c0-10.971429-8.881633-19.853061-19.853061-19.853061s-19.853061 8.881633-19.853061 19.853061V577.828571c0 79.412245 64.783673 144.195918 144.195918 144.195919s144.195918-64.783673 144.195918-144.195919v-223.608163c0-10.971429-9.404082-19.853061-19.853061-19.853061z"  horiz-adv-x="1024" />

    
    <glyph glyph-name="icon_Collection" unicode="&#58891;" d="M796.3136-107.52c-11.10528 0-24.05376 3.70176-35.15392 9.25184L520.58624 22.016l-242.42176-120.28416c-24.05888-12.9536-55.51616-11.10016-77.72672 5.55008-22.20544 16.66048-35.15904 46.26944-29.60896 74.02496l49.96608 259.08224L30.18752 418.03264C9.8304 438.38976 2.42688 469.84704 9.8304 495.75424c9.25184 27.75552 31.45728 48.11264 61.06624 51.8144l264.63232 48.11264L453.9648 836.2496c12.9536 25.9072 38.8608 42.56256 66.62144 42.56256 27.76064 0 55.51616-16.65536 66.62656-42.56256l118.43072-240.56832 264.6272-46.26432c27.76064-3.70176 51.81952-24.05888 59.22304-51.81952 9.25184-27.75552 1.8432-57.36448-18.5088-77.7216l-190.60736-179.50208 48.10752-259.08224c5.56032-29.60896-7.39328-57.36448-29.60896-74.02496-11.10016-9.2416-25.9072-14.78656-42.56256-14.78656z"  horiz-adv-x="1033" />

    
    <glyph glyph-name="icon_Collection_pre" unicode="&#58892;" d="M773.45792-109.42976c-14.40256 0-30.58176 4.13184-45.59872 11.63776l-214.29248 107.18208-215.61856-107.008c-13.65504-7.2704-29.2864-11.09504-45.22496-11.09504a96.2048 96.2048 0 0 0-57.5488 18.84672c-30.17728 22.6304-45.63968 61.8496-38.5024 97.55136l44.09856 228.7616L31.744 394.00448a104.07424 104.07424 0 0 0-26.28608 100.6592l0.34304 1.16224c12.288 36.82816 42.77248 62.63296 79.73376 67.584l234.83904 42.7008L425.7792 820.18816c16.93184 33.8944 51.36896 55.66976 87.78752 55.66976 37.9904 0 73.3184-22.59456 88.13056-56.28416l105.06752-213.4016 234.87488-41.06752A95.6672 95.6672 0 0 0 1019.904 496.73728a98.97472 98.97472 0 0 0-24.4736-101.00224l-0.57856-0.57856-168.5504-158.72 42.5984-229.1712c6.8608-36.6592-7.71584-73.66144-38.06208-96.73216a90.29632 90.29632 0 0 0-57.37984-19.96288z m-259.78368 181.1456l239.10912-119.57248c7.02976-3.54816 15.11936-5.76512 20.64896-5.76512 8.52992 0 16.45056 2.62656 22.25152 7.47008l1.09568 0.89088c13.58336 10.20416 20.20352 26.38336 17.23392 42.25536l-48.12288 259.21024 190.32576 179.23584c11.6736 11.84256 15.67232 28.80512 10.48064 44.40576l-0.512 1.6384a39.18336 39.18336 0 0 1-32.53248 28.3648l-1.09568 0.16896-263.33696 46.04416-118.50752 240.74752c-5.77024 13.44512-21.37088 23.20896-37.14048 23.20896-15.49312 0-30.3104-9.69728-37.82144-24.6784l-117.76-239.17056-264.73984-48.09728c-16.0768-2.01728-28.5696-12.6976-34.33984-29.35296-4.096-15.22176 0.74752-33.55136 11.94496-44.98944l190.53056-177.5616-50.00704-259.34336c-3.00032-14.98624 4.096-32.256 17.23904-42.12224 6.58944-4.95104 15.11936-7.68 24.064-7.68 6.89664 0 13.5168 1.60256 19.21536 4.67456l0.8192 0.48128 240.95744 119.53664z"  horiz-adv-x="1024" />

    
    <glyph glyph-name="ico_search" unicode="&#58894;" d="M947.50208 20.3008l-169.90208 169.40032c49.30048 65.80224 78.80192 147.2 78.80192 235.6992 0 218.10176-177.39776 394.90048-396.20096 394.90048S64 643.50208 64 425.40032s177.39776-394.90048 396.20096-394.90048c99.3024 0 189.7984 36.70016 259.3024 96.79872l167.59808-167.10144c8.29952-8.29952 19.2-12.49792 30.19776-12.49792s21.80096 4.1984 30.19776 12.49792a42.3168 42.3168 0 0 1 0.00512 60.10368z m-487.30112 95.20128c-171.40224 0-310.90176 138.99776-310.90176 309.89824s139.49952 309.89824 310.90176 309.89824 310.90176-138.99776 310.90176-309.89824-139.50464-309.89824-310.90176-309.89824z"  horiz-adv-x="1024" />

    
    <glyph glyph-name="adduser" unicode="&#58896;" d="M678.3 253.6c24.2 13 51.9 20.4 81.4 20.4h0.1c3 0 4.4 3.6 2.2 5.6-30.8 27.6-65.6 49.7-103.7 65.8-0.4 0.2-0.8 0.3-1.2 0.5C719.2 391 759.6 464.3 759.6 547c0 137-110.8 248-247.5 248S264.7 684 264.7 547c0-82.7 40.4-156 102.6-201.1-0.4-0.2-0.8-0.3-1.2-0.5-44.7-18.9-84.8-46-119.3-80.6-34.5-34.5-61.5-74.7-80.4-119.5C147.9 101.5 138 55 137 7.2c-0.1-4.5 3.5-8.2 8-8.2h59.9c4.3 0 7.9 3.5 8 7.8 2 77.2 32.9 149.5 87.6 204.3C357 267.8 432.2 299 512.2 299c56.7 0 111.1-15.7 158-45.1 2.5-1.5 5.5-1.7 8.1-0.3zM512.2 375c-45.8 0-88.9 17.9-121.4 50.4-32.4 32.5-50.3 75.7-50.3 121.6 0 45.9 17.9 89.1 50.3 121.6S466.3 719 512.2 719s88.9-17.9 121.4-50.4c32.4-32.5 50.3-75.7 50.3-121.6 0-45.9-17.9-89.1-50.3-121.6C601.1 392.9 558 375 512.2 375zM880 137h-84v84c0 4.4-3.6 8-8 8h-56c-4.4 0-8-3.6-8-8v-84h-84c-4.4 0-8-3.6-8-8v-56c0-4.4 3.6-8 8-8h84v-84c0-4.4 3.6-8 8-8h56c4.4 0 8 3.6 8 8v84h84c4.4 0 8 3.6 8 8v56c0 4.4-3.6 8-8 8z"  horiz-adv-x="1024" />

    
    <glyph glyph-name="database" unicode="&#58903;" d="M832 832H192c-17.7 0-32-14.3-32-32v-832c0-17.7 14.3-32 32-32h640c17.7 0 32 14.3 32 32V800c0 17.7-14.3 32-32 32z m-600-72h560v-208H232V760z m560-480H232V488h560v-208z m0-272H232V216h560v-208zM304 656a40 40 0 1 1 80 0 40 40 0 1 1-80 0z m0-272a40 40 0 1 1 80 0 40 40 0 1 1-80 0z m0-272a40 40 0 1 1 80 0 40 40 0 1 1-80 0z"  horiz-adv-x="1024" />

    
    <glyph glyph-name="close-circle" unicode="&#58905;" d="M685.4 541.2c0 4.4-3.6 8-8 8l-66-0.3L512 430.4l-99.3 118.4-66.1 0.3c-4.4 0-8-3.5-8-8 0-1.9 0.7-3.7 1.9-5.2l130.1-155L340.5 226c-1.2-1.5-1.9-3.3-1.9-5.2 0-4.4 3.6-8 8-8l66.1 0.3L512 331.6l99.3-118.4 66-0.3c4.4 0 8 3.5 8 8 0 1.9-0.7 3.7-1.9 5.2L553.5 381l130.1 155c1.2 1.4 1.8 3.3 1.8 5.2zM512 831C264.6 831 64 630.4 64 383s200.6-448 448-448 448 200.6 448 448S759.4 831 512 831z m0-820c-205.4 0-372 166.6-372 372s166.6 372 372 372 372-166.6 372-372-166.6-372-372-372z"  horiz-adv-x="1024" />

    
    <glyph glyph-name="export" unicode="&#58906;" d="M888.3 138.6h-53.8c-4.2 0-7.7-3.5-7.7-7.7v-61.8H197.1V698.9h629.8v-61.8c0-4.2 3.5-7.7 7.7-7.7h53.8c4.2 0 7.7 3.4 7.7 7.7V737.3c0 17-13.7 30.7-30.7 30.7H158.7c-17 0-30.7-13.7-30.7-30.7v-706.6c0-17 13.7-30.7 30.7-30.7h706.6c17 0 30.7 13.7 30.7 30.7V130.9c0 4.3-3.5 7.7-7.7 7.7zM906.9 390.3L765 502.3c-5.3 4.2-13 0.4-13-6.3v-76H438c-4.4 0-8-3.6-8-8v-56c0-4.4 3.6-8 8-8h314v-76c0-6.7 7.8-10.5 13-6.3l141.9 112c4.1 3.2 4.1 9.4 0 12.6z"  horiz-adv-x="1024" />

    
    <glyph glyph-name="reloadtime" unicode="&#58907;" d="M536.1 623H488c-4.4 0-8-3.6-8-8v-275.3c0-2.6 1.2-5 3.3-6.5l165.3-120.7c3.6-2.6 8.6-1.9 11.2 1.7l28.6 39c2.7 3.7 1.9 8.7-1.7 11.2L544.1 367.5V615c0 4.4-3.6 8-8 8z m219.8-75.2l156.8-38.3c5-1.2 9.9 2.6 9.9 7.7l0.8 161.5c0 6.7-7.7 10.5-12.9 6.3L752.9 561.9c-5.3-4.2-3.5-12.5 3-14.1zM923.6 246.7l-56.7 19.5c-4.1 1.4-8.6-0.7-10.1-4.8-1.9-5.1-3.9-10.1-6-15.1-17.8-42.1-43.3-80-75.9-112.5-32.5-32.5-70.4-58.1-112.5-75.9-43.6-18.4-89.9-27.8-137.7-27.8-47.8 0-94.1 9.3-137.7 27.8-42.1 17.8-80 43.4-112.5 75.9-32.5 32.5-58 70.4-75.9 112.5C180.3 289.8 171 336.2 171 384c0 47.8 9.3 94.2 27.8 137.8 17.8 42.1 43.3 80 75.9 112.5 32.5 32.5 70.4 58.1 112.5 75.9C430.6 728.7 477 738 524.8 738s94.1-9.3 137.7-27.8c42.1-17.8 80-43.4 112.5-75.9 10.2-10.3 19.8-21 28.6-32.3l59.8 46.8C784.7 749.4 662.2 814.1 524.6 814 285 813.9 92.6 619.3 95 379.6 97.4 144.1 288.9-46 524.8-46c185.5 0 343.5 117.6 403.7 282.3 1.5 4.2-0.7 8.9-4.9 10.4z"  horiz-adv-x="1024" />

    
    <glyph glyph-name="plus-circle" unicode="&#58908;" d="M696 416H544V568c0 4.4-3.6 8-8 8h-48c-4.4 0-8-3.6-8-8v-152H328c-4.4 0-8-3.6-8-8v-48c0-4.4 3.6-8 8-8h152v-152c0-4.4 3.6-8 8-8h48c4.4 0 8 3.6 8 8V352h152c4.4 0 8 3.6 8 8v48c0 4.4-3.6 8-8 8zM512 832C264.6 832 64 631.4 64 384s200.6-448 448-448 448 200.6 448 448S759.4 832 512 832z m0-820c-205.4 0-372 166.6-372 372s166.6 372 372 372 372-166.6 372-372-166.6-372-372-372z"  horiz-adv-x="1024" />

    
    <glyph glyph-name="timeout" unicode="&#58909;" d="M512 832C264.6 832 64 631.4 64 384s200.6-448 448-448 448 200.6 448 448S759.4 832 512 832z m0-820c-205.4 0-372 166.6-372 372s166.6 372 372 372 372-166.6 372-372-166.6-372-372-372zM424 544h-48c-4.4 0-8-3.6-8-8v-304c0-4.4 3.6-8 8-8h48c4.4 0 8 3.6 8 8V536c0 4.4-3.6 8-8 8z m224 0h-48c-4.4 0-8-3.6-8-8v-304c0-4.4 3.6-8 8-8h48c4.4 0 8 3.6 8 8V536c0 4.4-3.6 8-8 8z"  horiz-adv-x="1024" />

    
    <glyph glyph-name="undo" unicode="&#58910;" d="M511.4 772C290.5 771.7 112 593 112 372.1c0-128 60.2-242 153.8-315.2l-37.5-48c-4.1-5.3-0.3-13 6.3-12.9l167 0.8c5.2 0 9 4.9 7.7 9.9L369.8 169c-1.6 6.5-10 8.3-14.1 3L315 119.9c-10.2 8-20 16.7-29.3 26-29.4 29.4-52.5 63.6-68.6 101.7C200.4 287 192 328.9 192 372.1s8.4 85.1 25.1 124.5c16.1 38.1 39.2 72.3 68.6 101.7 29.4 29.4 63.6 52.5 101.7 68.6C426.9 683.6 468.8 692 512 692s85.1-8.4 124.5-25.1c38.1-16.1 72.3-39.2 101.7-68.6 29.4-29.4 52.5-63.6 68.6-101.7 16.7-39.4 25.1-81.3 25.1-124.5s-8.4-85.1-25.1-124.5c-16.1-38.1-39.2-72.3-68.6-101.7-7.5-7.5-15.3-14.5-23.4-21.2-3.4-2.8-3.9-7.7-1.2-11.1l39.4-50.5c2.8-3.5 7.9-4.1 11.4-1.3C854.5 135.2 912 246.9 912 372.1c0 221.1-179.4 400.2-400.6 399.9z"  horiz-adv-x="1024" />

    
    <glyph glyph-name="smile" unicode="&#58911;" d="M288 475a48 48 0 1 1 96 0 48 48 0 1 1-96 0zM640 475a48 48 0 1 1 96 0 48 48 0 1 1-96 0zM512 832C264.6 832 64 631.4 64 384s200.6-448 448-448 448 200.6 448 448S759.4 832 512 832z m263-711c-34.2-34.2-74-61-118.3-79.8C611 21.8 562.3 12 512 12c-50.3 0-99 9.8-144.8 29.2-44.3 18.7-84.1 45.6-118.3 79.8-34.2 34.2-61 74-79.8 118.3C149.8 285 140 333.7 140 384s9.8 99 29.2 144.8c18.7 44.3 45.6 84.1 79.8 118.3 34.2 34.2 74 61 118.3 79.8C413 746.2 461.7 756 512 756c50.3 0 99-9.8 144.8-29.2 44.3-18.7 84.1-45.6 118.3-79.8 34.2-34.2 61-74 79.8-118.3C874.2 483 884 434.3 884 384s-9.8-99-29.2-144.8c-18.7-44.3-45.6-84.1-79.8-118.2zM664 363h-48.1c-4.2 0-7.8-3.2-8.1-7.4C604 306.1 562.5 267 512 267s-92.1 39.1-95.8 88.6c-0.3 4.2-3.9 7.4-8.1 7.4H360c-4.6 0-8.2-3.8-8-8.4 4.4-84.3 74.5-151.6 160-151.6s155.6 67.3 160 151.6c0.2 4.6-3.4 8.4-8 8.4z"  horiz-adv-x="1024" />

    
    <glyph glyph-name="YUAN" unicode="&#58912;" d="M512 832C264.6 832 64 631.4 64 384s200.6-448 448-448 448 200.6 448 448S759.4 832 512 832z m0-820c-205.4 0-372 166.6-372 372s166.6 372 372 372 372-166.6 372-372-166.6-372-372-372zM671.6 597h-59.5c-3 0-5.8-1.7-7.1-4.4l-90.6-180H511l-90.6 180c-1.4 2.7-4.1 4.4-7.1 4.4h-60.7c-1.3 0-2.6-0.3-3.8-1-3.9-2.1-5.3-7-3.2-10.9L457 380.3h-61.4c-4.4 0-8-3.6-8-8v-29.9c0-4.4 3.6-8 8-8h81.7V293h-81.7c-4.4 0-8-3.6-8-8v-29.9c0-4.4 3.6-8 8-8h81.7V179c0-4.4 3.6-8 8-8h54.3c4.4 0 8 3.6 8 8v68.1h82c4.4 0 8 3.6 8 8V285c0 4.4-3.6 8-8 8h-82v41.5h82c4.4 0 8 3.6 8 8v29.9c0 4.4-3.6 8-8 8h-62l111.1 204.8c0.6 1.2 1 2.5 1 3.8-0.1 4.4-3.7 8-8.1 8z"  horiz-adv-x="1024" />

    
    <glyph glyph-name="transaction" unicode="&#58913;" d="M668.6 576c0 4.4-3.6 8-8 8h-54.5c-3 0-5.8-1.7-7.1-4.4l-84.7-168.8H511l-84.7 168.8c-1.4 2.7-4.1 4.4-7.1 4.4h-55.7c-1.3 0-2.6-0.3-3.8-1-3.9-2.1-5.3-7-3.2-10.8l103.9-191.6h-57c-4.4 0-8-3.6-8-8v-27.1c0-4.4 3.6-8 8-8h76v-39h-76c-4.4 0-8-3.6-8-8v-27.1c0-4.4 3.6-8 8-8h76V192c0-4.4 3.6-8 8-8h49.9c4.4 0 8 3.6 8 8v63.5h76.3c4.4 0 8 3.6 8 8v27.1c0 4.4-3.6 8-8 8h-76.3v39h76.3c4.4 0 8 3.6 8 8v27.1c0 4.4-3.6 8-8 8H564l103.7 191.6c0.5 1.1 0.9 2.4 0.9 3.7zM157.9 391.8c1 45.1 10.3 88.7 27.7 129.9 17.8 42.1 43.3 80 75.8 112.5s70.3 58.1 112.4 75.9c43.6 18.4 89.9 27.8 137.6 27.8 47.8 0 94.1-9.3 137.6-27.8 42.1-17.8 79.9-43.4 112.4-75.9 10-10 19.3-20.5 27.9-31.4l-50-39.1c-5.3-4.1-3.5-12.5 3-14.1l156.8-38.3c5-1.2 9.9 2.6 9.9 7.7l0.8 161.5c0 6.7-7.7 10.5-12.9 6.3l-47.8-37.4C770.7 749.7 648.6 814 511.5 814 277 814 86.3 625.9 82 392.2c-0.1-4.5 3.5-8.2 8-8.2h60c4.3 0 7.8 3.5 7.9 7.8zM934 384h-60c-4.3 0-7.9-3.5-8-7.8-1-45.1-10.3-88.7-27.7-129.9-17.8-42.1-43.3-80-75.8-112.5s-70.3-58.1-112.4-75.9c-43.6-18.4-89.9-27.8-137.6-27.8s-94.1 9.3-137.6 27.8c-42.1 17.8-79.9 43.4-112.4 75.9-10 10-19.3 20.5-27.9 31.4l49.9 39.1c5.3 4.1 3.5 12.5-3 14.1l-156.8 38.3c-5 1.2-9.9-2.6-9.9-7.7l-0.8-161.7c0-6.7 7.7-10.5 12.9-6.3l47.8 37.4C253.3 18.3 375.4-46 512.5-46 747-46 937.7 142.1 942 375.8c0.1 4.5-3.5 8.2-8 8.2z"  horiz-adv-x="1024" />

    
    <glyph glyph-name="question" unicode="&#58914;" d="M512 832C264.6 832 64 631.4 64 384s200.6-448 448-448 448 200.6 448 448S759.4 832 512 832z m0-820c-205.4 0-372 166.6-372 372s166.6 372 372 372 372-166.6 372-372-166.6-372-372-372zM623.6 579.3C593.6 605.6 554 620 512 620s-81.6-14.5-111.6-40.7C369.2 552 352 515.3 352 476v-7.6c0-4.4 3.6-8 8-8h48c4.4 0 8 3.6 8 8V476c0 44.1 43.1 80 96 80s96-35.9 96-80c0-31.1-22-59.6-56.1-72.7-21.2-8.1-39.2-22.3-52.1-40.9-13.1-19-19.9-41.8-19.9-64.9V276c0-4.4 3.6-8 8-8h48c4.4 0 8 3.6 8 8v22.7c0 19.7 12.4 37.7 30.9 44.8 59 22.7 97.1 74.7 97.1 132.5 0.1 39.3-17.1 76-48.3 103.3zM472 164a40 40 0 1 1 80 0 40 40 0 1 1-80 0z"  horiz-adv-x="1024" />

    
    <glyph glyph-name="-shangpu" unicode="&#59020;" d="M955.733333 329.386667c-68.266667 0-136.533333 27.306667-170.666666 81.92-40.96-47.786667-122.88-81.92-204.8-81.92s-157.013333 27.306667-204.8 81.92C341.333333 363.52 273.066667 329.386667 204.8 329.386667c-116.053333 0-204.8 75.093333-204.8 170.666666 0 54.613333 27.306667 95.573333 68.266667 129.706667v40.96c0 116.053333 88.746667 204.8 204.8 204.8h614.4c116.053333 0 204.8-88.746667 204.8-204.8v-40.96c40.96-34.133333 68.266667-81.92 68.266666-129.706667 0-88.746667-88.746667-170.666667-204.8-170.666666z m-170.666666 191.146666l47.786666-68.266666c27.306667-34.133333 68.266667-54.613333 116.053334-54.613334 75.093333 0 136.533333 47.786667 136.533333 102.4 0 27.306667-13.653333 54.613333-40.96 75.093334l-20.48 20.48V670.72c0 75.093333-61.44 136.533333-136.533333 136.533333H273.066667c-75.093333 0-136.533333-61.44-136.533334-136.533333v-75.093333l-27.306666-20.48c-27.306667-20.48-40.96-47.786667-40.96-75.093334 0-54.613333 61.44-102.4 136.533333-102.4 47.786667 0 95.573333 20.48 116.053333 54.613334l47.786667 68.266666 54.613333-61.44c34.133333-34.133333 88.746667-54.613333 150.186667-54.613333s122.88 20.48 150.186667 54.613333l61.44 61.44zM853.333333-107.52h-546.133333c-129.706667 0-238.933333 109.226667-238.933333 238.933333V261.12c0 20.48 13.653333 34.133333 34.133333 34.133333s34.133333-13.653333 34.133333-34.133333v-129.706667c0-95.573333 75.093333-170.666667 170.666667-170.666666h546.133333c47.786667 0 88.746667 20.48 122.88 47.786666 34.133333 34.133333 47.786667 75.093333 47.786667 122.88v136.533334c0 20.48 13.653333 34.133333 34.133333 34.133333s34.133333-20.48 34.133334-40.96v-136.533333c0-68.266667-27.306667-122.88-68.266667-170.666667-47.786667-40.96-109.226667-61.44-170.666667-61.44zM307.2 670.72h546.133333c20.48 0 34.133333-13.653333 34.133334-34.133333s-13.653333-34.133333-34.133334-34.133334h-546.133333c-20.48 0-34.133333 20.48-34.133333 34.133334 0 20.48 13.653333 34.133333 34.133333 34.133333z"  horiz-adv-x="1160" />

    
    <glyph glyph-name="-caidan" unicode="&#59021;" d="M12.8 723.2a76.8 76.8 0 1 1 153.6 0 76.8 76.8 0 1 1-153.6 0ZM12.8 403.2a76.8 76.8 0 1 1 153.6 0 76.8 76.8 0 1 1-153.6 0ZM12.8 83.2a76.8 76.8 0 1 1 153.6 0 76.8 76.8 0 1 1-153.6 0ZM326.4 755.2h723.2c19.2 0 38.4-19.2 38.4-38.4s-19.2-38.4-38.4-38.4H326.4c-19.2 6.4-38.4 25.6-38.4 44.8 0 19.2 6.4 32 38.4 32zM326.4 441.6h723.2c19.2 0 38.4-19.2 38.4-38.4s-19.2-38.4-38.4-38.4H326.4c-19.2 0-38.4 19.2-38.4 38.4s6.4 38.4 38.4 38.4zM326.4 121.6h723.2c19.2 0 38.4-19.2 38.4-38.4s-19.2-38.4-38.4-38.4H326.4c-19.2 0-38.4 19.2-38.4 38.4 0 32 6.4 38.4 38.4 38.4z"  horiz-adv-x="1088" />

    
    <glyph glyph-name="-shezhi" unicode="&#59022;" d="M512 158.72c-129.706667 0-232.106667 102.4-232.106667 225.28s109.226667 225.28 232.106667 225.28 232.106667-102.4 232.106667-225.28-102.4-225.28-232.106667-225.28z m0 382.293333c-61.44 0-122.88-34.133333-143.36-95.573333-27.306667-61.44-6.826667-122.88 27.306667-170.666667 40.96-47.786667 116.053333-54.613333 170.666666-34.133333 61.44 27.306667 95.573333 81.92 95.573334 143.36 0 81.92-61.44 150.186667-150.186667 157.013333zM621.226667-87.04c-27.306667 0-54.613333 13.653333-68.266667 40.96-6.826667 13.653333-20.48 20.48-34.133333 20.48s-27.306667-6.826667-34.133334-20.48c-13.653333-27.306667-40.96-40.96-68.266666-40.96h-20.48c-54.613333 13.653333-109.226667 34.133333-150.186667 68.266667-34.133333 20.48-61.44 40.96-88.746667 68.266666s-27.306667 61.44-6.826666 95.573334c6.826667 13.653333 6.826667 27.306667 6.826666 34.133333-13.653333 13.653333-27.306667 20.48-40.96 20.48h-13.653333-6.826667c-34.133333 0-68.266667 20.48-75.093333 54.613333C0 336.213333 0 424.96 27.306667 513.706667c6.826667 34.133333 40.96 54.613333 75.093333 54.613333h13.653333c13.653333 6.826667 20.48 13.653333 27.306667 20.48 6.826667 13.653333 6.826667 27.306667 0 40.96-20.48 27.306667-20.48 61.44 6.826667 88.746667 27.306667 20.48 54.613333 47.786667 88.746666 68.266666 47.786667 34.133333 102.4 54.613333 150.186667 68.266667 34.133333 6.826667 68.266667-6.826667 88.746667-40.96 6.826667-13.653333 20.48-20.48 34.133333-20.48s27.306667 6.826667 34.133333 20.48c20.48 34.133333 54.613333 47.786667 88.746667 40.96 54.613333-13.653333 109.226667-34.133333 150.186667-68.266667 34.133333-20.48 61.44-40.96 88.746666-68.266666s27.306667-61.44 6.826667-95.573334c-6.826667-13.653333-6.826667-27.306667 0-40.96 6.826667-6.826667 13.653333-13.653333 27.306667-20.48h13.653333c34.133333 0 68.266667-20.48 81.92-54.613333 27.306667-88.746667 27.306667-177.493333 0-259.413333-6.826667-34.133333-40.96-54.613333-81.92-54.613334h-13.653333c-13.653333 0-20.48-6.826667-27.306667-20.48-6.826667-13.653333-6.826667-27.306667 0-40.96 20.48-27.306667 13.653333-68.266667-6.826667-95.573333-27.306667-20.48-54.613333-47.786667-88.746666-68.266667-47.786667-34.133333-95.573333-47.786667-150.186667-61.44 0 6.826667-6.826667 6.826667-13.653333 6.826667z m-109.226667 136.533333c47.786667 0 81.92-27.306667 102.4-61.44 47.786667 13.653333 88.746667 27.306667 129.706667 54.613334 27.306667 20.48 54.613333 34.133333 75.093333 54.613333-20.48 34.133333-27.306667 68.266667-13.653333 102.4s47.786667 61.44 81.92 68.266667h27.306666c20.48 75.093333 20.48 150.186667 0 225.28H887.466667c-40.96 6.826667-68.266667 34.133333-81.92 68.266666s-20.48 61.44 6.826666 88.746667c-20.48 20.48-40.96 40.96-75.093333 54.613333-40.96 27.306667-88.746667 47.786667-122.88 54.613334-20.48-13.653333-54.613333-40.96-102.4-40.96S423.253333 745.813333 409.6 779.946667c-47.786667-6.826667-95.573333-27.306667-136.533333-54.613334-20.48-20.48-47.786667-40.96-68.266667-54.613333 20.48-34.133333 27.306667-68.266667 13.653333-102.4-13.653333-27.306667-47.786667-54.613333-81.92-61.44h-27.306666c-27.306667-81.92-27.306667-163.84-6.826667-238.933333h27.306667c40.96-6.826667 68.266667-34.133333 81.92-68.266667s13.653333-75.093333-13.653334-102.4c20.48-20.48 40.96-40.96 75.093334-54.613333 40.96-27.306667 88.746667-47.786667 129.706666-54.613334 27.306667 34.133333 61.44 61.44 109.226667 61.44z"  horiz-adv-x="1024" />

    
    <glyph glyph-name="-zhengque" unicode="&#59023;" d="M95.573333 336.213333l266.24-245.76 559.786667 580.266667c20.48 20.48 47.786667 20.48 68.266667 0 20.48-20.48 20.48-47.786667 0-68.266667l-634.88-641.706666L34.133333 261.12C13.653333 281.6 13.653333 308.906667 27.306667 336.213333c20.48 13.653333 47.786667 20.48 68.266666 0z"  horiz-adv-x="1024" />

    
    <glyph glyph-name="-xialacaidan" unicode="&#59024;" d="M577.828571-18.285714c-36.571429 0-80.457143 14.628571-117.028571 43.885714L43.885714 479.085714C14.628571 508.342857 7.314286 537.6 7.314286 588.8c0 80.457143 58.514286 153.6 153.6 153.6h841.142857c36.571429 0 73.142857-14.628571 109.714286-36.571429 58.514286-51.2 58.514286-160.914286 7.314285-212.114285l-416.914285-453.485715-36.571429 36.571429 36.571429-36.571429c-51.2-51.2-87.771429-58.514286-124.342858-58.514285z m36.571429 102.4l36.571429-36.571429-36.571429 36.571429 416.914286 453.485714c14.628571 14.628571 14.628571 51.2 0 73.142857-7.314286 7.314286-14.628571 14.628571-36.571429 14.628572H153.6c-29.257143 0-43.885714-14.628571-43.885714-51.2 0-7.314286 7.314286-29.257143 7.314285-36.571429l416.914286-453.485714c29.257143-14.628571 65.828571-14.628571 80.457143 0z"  horiz-adv-x="1170" />

    
    <glyph glyph-name="-geren" unicode="&#59025;" d="M771.55936-121.6h-512c-64 0-115.2 19.2-160 64-51.2 38.4-76.8 102.4-83.2 166.4s19.2 121.6 64 172.8C150.75936 358.4 221.15936 409.6 297.95936 448c-38.4 57.6-64 115.2-64 185.6 6.4 140.8 128 262.4 281.6 262.4s275.2-128 275.2-281.6c0-64-19.2-128-64-179.2 76.8-32 153.6-89.6 217.6-166.4 38.4-38.4 64-102.4 64-160 6.4-121.6-108.8-230.4-236.8-230.4z m-256 947.2c-115.2 0-204.8-96-204.8-211.2 0-64 25.6-121.6 76.8-166.4l38.4-38.4-57.6-19.2c-76.8-25.6-160-83.2-236.8-160-32-32-51.2-70.4-44.8-121.6 0-44.8 19.2-89.6 57.6-115.2 38.4-25.6 70.4-38.4 115.2-38.4h512c96 0 172.8 76.8 172.8 172.8 0 38.4-12.8 83.2-38.4 115.2-76.8 76.8-153.6 128-236.8 160l-64 12.8 38.4 38.4c51.2 38.4 76.8 102.4 76.8 166.4 0 108.8-89.6 204.8-204.8 204.8zM310.75936 115.2h416c19.2 0 32-12.8 32-32s-12.8-32-32-32H310.75936c-19.2 0-32 12.8-32 32-6.4 19.2 12.8 32 32 32z"  horiz-adv-x="1024" />

    
    <glyph glyph-name="-xinxiaoxi" unicode="&#59026;" d="M512 896c43.885714 0 73.142857-29.257143 73.142857-73.142857s-29.257143-73.142857-73.142857-73.142857-73.142857 29.257143-73.142857 73.142857 29.257143 73.142857 73.142857 73.142857zM877.714286 18.285714H146.285714V457.142857c0 204.8 160.914286 365.714286 365.714286 365.714286s365.714286-160.914286 365.714286-365.714286v-438.857143z m-658.285715 73.142857h585.142858V457.142857c0 160.914286-131.657143 292.571429-292.571429 292.571429S219.428571 618.057143 219.428571 457.142857v-365.714286zM36.571429 91.428571h950.857142c21.942857 0 36.571429-14.628571 36.571429-36.571428s-14.628571-36.571429-36.571429-36.571429H36.571429c-21.942857 0-36.571429 14.628571-36.571429 36.571429s14.628571 36.571429 36.571429 36.571428zM512-128c58.514286 0 109.714286 21.942857 146.285714 73.142857H365.714286c36.571429-51.2 87.771429-73.142857 146.285714-73.142857zM841.142857 640m-109.714286 0a109.714286 109.714286 0 1 1 219.428572 0 109.714286 109.714286 0 1 1-219.428572 0ZM841.142857 493.714286c-80.457143 0-146.285714 65.828571-146.285714 146.285714s65.828571 146.285714 146.285714 146.285714 146.285714-65.828571 146.285714-146.285714-65.828571-146.285714-146.285714-146.285714z m0 219.428571c-43.885714 0-73.142857-29.257143-73.142857-73.142857s29.257143-73.142857 73.142857-73.142857 73.142857 29.257143 73.142857 73.142857-29.257143 73.142857-73.142857 73.142857z"  horiz-adv-x="1024" />

    


  </font>
</defs>
</svg>
